<?xml version="1.0" encoding="utf-8"?>
<!-- Generator: Adobe Illustrator 21.1.0, SVG Export Plug-In . SVG Version: 6.00 Build 0)  -->
<svg version="1.1" xmlns="http://www.w3.org/2000/svg" xmlns:xlink="http://www.w3.org/1999/xlink" x="0px" y="0px"
	 viewBox="0 0 111 66.1" style="enable-background:new 0 0 111 66.1;" xml:space="preserve">
<style type="text/css">
	.st0{fill:#11C1F3;}
	.st1{fill:#010102;}
	.st2{fill:#FFFFFF;}
</style>
<symbol  id="picksoul-logo-form-white" viewBox="-464.1 -464.1 928.2 928.2">
	<g>
		<path class="st0" d="M6.9-294.6c-22.6,0.8-32.2,9.1-37.5,12.3c-5.6,3.4-8.4,7-4.5,11.8s6.5,4.5,14.1-1.1
			c7.1-5.2,20.8-8.3,29.9-8.7c9.1,0.4,22.8,3.4,29.9,8.7c7.6,5.6,10.1,5.9,14.1,1.1c3.9-4.8,1.1-8.4-4.5-11.8
			c-5.3-3.2-15-11.5-37.5-12.3"/>
		<path class="st0" d="M71-240.9c-10.7,0-87.2,0.3-88,0c0,0,74.8,17.2,86.3,19.4c11.5,2.3,19.7,1.4,19.7-8.2
			C89-239.2,81.7-240.9,71-240.9z"/>
		<path class="st0" d="M70.3-189.3c7.9,2,13.8,2.5,16.6-6.7c2.8-9.3-3.4-13.8-12.9-16c-9.6-2.3-113.1-25.9-124.6-27.8
			c-11.5-2-17.4-1.7-19.4,8.2c-2,9.8,4.5,11.8,12.1,13.2S-7.6-208,8.9-204.3C8.8-204.5,62.4-191.3,70.3-189.3"/>
		<path class="st0" d="M-58-188.2c7.6,1.4,50.3,10.4,66.8,14.1c0,0,53.6,13.2,61.5,15.2s13.8,2.5,16.6-6.8c2.8-9.3-3.4-13.8-12.9-16
			c-9.6-2.3-113.1-25.9-124.6-27.8c-11.5-2-17.4-1.7-19.4,8.2C-72-191.6-65.6-189.6-58-188.2z"/>
		<path class="st0" d="M-52.1-158.9c10.7,0,87.2-0.3,88,0c0,0-74.8-17.2-86.3-19.4c-11.5-2.3-19.7-1.4-19.7,8.2
			C-70.1-160.6-62.8-158.9-52.1-158.9z"/>
	</g>
	<path class="st1" d="M10.7-295L10.7-295c-0.6-0.1-1.3-0.1-1.9-0.1c-0.6,0-1.3,0-1.9,0v0.1"/>
	<polygon class="st0" points="-26.1,82.3 -77.3,82.3 91.5,233.7 22.5,122.1 77.3,122.1 -86.8,-25.1 	"/>
	<g>
		<path class="st2" d="M109.5-185.8"/>
		<path class="st2" d="M109.5-208.2"/>
		<path class="st0" d="M0,464.1c-256.3,0-464.1-207.8-464.1-464.1S-256.3-464.1,0-464.1S464.1-256.3,464.1,0S256.3,464.1,0,464.1z
			 M151.3-41.9C134.7-58,118-67.6,107.6-72.7l-11-62.9c1.1-0.8,20.4-7.3,20.3-25.7c0,0-0.4-17.1-7.4-24.4c0,0,7.6-5.6,7.6-16.5
			c0-9.3-8.8-22.1-10.6-22.5c1.5-0.8,9.5-3.9,9.5-19.8c0,0-4.4-24.6-27.5-24.6l-4.5-0.2c-8.3-20.2-31.3-49.6-74-49.6
			c-42.9,0-69.5,22.6-79.8,43.1c-23.3,0-32.1,20-32.5,29c0,0-1.9,16.2,5.6,19.7c0,0-10.9,9.5-10.9,21.9c0,11,6.3,17,6.3,17
			c-6.5,8.9-7.3,22.4-7.3,22.4c0,12.2,9.5,21,16.8,26.2l-18.9,67.7C-120.4-66-137.2-54.4-154-36c-23.1,25.5-50.7,69.4-50.7,134.2
			c0,58.9,21.7,112.5,61,150.8c38,36.9,89.2,57.3,144.4,57.3c55.4,0,106.5-20.7,143.7-58.2c39.2-39.5,59.9-93.3,59.9-155.7
			C204.5,24,175.6-18.4,151.3-41.9z"/>
		<path class="st2" d="M109.5-185.8L109.5-185.8L109.5-185.8z"/>
		<path class="st2" d="M109.5-208.8"/>
	</g>
</symbol>
<g id="Layer_2">
</g>
<g id="Layer_1">
	<polygon class="st2" points="0.2,0 0.2,54 36.8,66 109.3,0 	"/>
	
		<use xlink:href="#picksoul-logo-form-white"  width="928.2" height="928.2" id="XMLID_1_" x="-464.1" y="-464.1" transform="matrix(5.602090e-02 0 0 -5.602090e-02 28.9535 30.4195)" style="overflow:visible;"/>
</g>
</svg>
