<?xml version="1.0" encoding="utf-8"?>
<!-- Generator: Adobe Illustrator 19.1.0, SVG Export Plug-In . SVG Version: 6.00 Build 0)  -->
<svg version="1.1" id="Layer_1" xmlns="http://www.w3.org/2000/svg" xmlns:xlink="http://www.w3.org/1999/xlink" x="0px" y="0px"
	 viewBox="0 0 153.3 153.3" style="enable-background:new 0 0 153.3 153.3;" xml:space="preserve">
<style type="text/css">
	.st0{fill:#464647;stroke:#FFFFFF;stroke-width:3.78;stroke-miterlimit:10;}
	.st1{fill:#FFFFFF;stroke:#FFFFFF;stroke-width:3.78;stroke-miterlimit:10;}
	.st2{fill:none;stroke:#464647;stroke-width:0.81;stroke-miterlimit:10;}
	.st3{fill:#FFFFFF;stroke:#000000;stroke-width:3.78;stroke-miterlimit:10;}
	.st4{display:none;fill:#FFFFFF;stroke:#464647;stroke-width:2.16;stroke-miterlimit:10;}
	.st5{stroke:#000000;stroke-width:3.78;stroke-miterlimit:10;}
	.st6{fill:#FFFFFF;}
	.st7{fill:#ED3225;}
</style>
<circle cx="76.7" cy="76.7" r="74.2"/>
<g>
	<path class="st0" d="M78.3,127.7c-9,0-13.5-6.3-13.5-9.8v-2.7h26.7l-1,3.4C89.6,121.8,85.9,127.7,78.3,127.7z"/>
	<path class="st0" d="M67.4,117.9c0,1.9,3.2,7.1,10.8,7.1c7.7,0,9.6-7.1,9.6-7.1H67.4z"/>
	<g>
		<path class="st0" d="M65.3,108.9c-4.7,0.2-5.4-3.2-5.5-4.6l0-0.3c-0.1-1.4-0.2-3.3,1.2-4.8c0.9-1,2.2-1.5,3.8-1.6l25.1-1.1
			c1.6-0.1,2.9,0.3,3.9,1.2c1.5,1.4,1.6,3.3,1.6,4.7l0,0.3c0.1,1.5-0.3,4.9-5,5.1L65.3,108.9z"/>
		<path class="st0" d="M78.9,105.7c0,0,9.9,0,11.5,0c1.6,0,2.6-0.4,2.6-2.2c0-1.8,0.2-3.7-2.6-3.7c-2.7,0-7.3,0-11.5,0h-2.2
			c-4.2,0-8.7,0-11.5,0c-2.7,0-2.6,1.9-2.6,3.7c0,1.8,1,2.2,2.6,2.2c1.6,0,11.5,0,11.5,0H78.9z"/>
		<path class="st0" d="M65.5,114.9c-4.7,0.2-5.4-3.2-5.5-4.6l0-0.3c-0.1-1.4-0.2-3.3,1.2-4.8c0.9-1,2.2-1.5,3.8-1.6l25.1-1.1
			c1.6-0.1,2.9,0.3,3.9,1.2c1.5,1.4,1.6,3.3,1.6,4.7l0,0.3c0.1,1.5-0.3,4.9-5,5.1L65.5,114.9z"/>
		<path class="st0" d="M78.9,111.6c0,0,9.9,0,11.5,0c1.6,0,2.6-0.4,2.6-2.2c0-1.8,0.2-3.7-2.6-3.7c-2.7,0-7.3,0-11.5,0h-2.2
			c-4.2,0-8.7,0-11.5,0c-2.7,0-2.6,1.9-2.6,3.7c0,1.8,1,2.2,2.6,2.2c1.6,0,11.5,0,11.5,0H78.9z"/>
		<path class="st0" d="M65.8,120.8c-4.7,0.2-5.4-3.2-5.5-4.6l0-0.3c-0.1-1.4-0.2-3.3,1.2-4.8c0.9-1,2.2-1.5,3.8-1.6l25.1-1.1
			c1.6-0.1,2.9,0.3,3.9,1.2c1.5,1.4,1.6,3.3,1.6,4.7l0,0.3c0.1,1.5-0.3,4.9-5,5.1L65.8,120.8z"/>
		<path class="st0" d="M78.9,117.6c0,0,9.9,0,11.5,0c1.6,0,2.6-0.4,2.6-2.2c0-1.8,0.2-3.7-2.6-3.7c-2.7,0-7.3,0-11.5,0h-2.2
			c-4.2,0-8.7,0-11.5,0c-2.7,0-2.6,1.9-2.6,3.7c0,1.8,1,2.2,2.6,2.2c1.6,0,11.5,0,11.5,0H78.9z"/>
	</g>
	<path class="st1" d="M61,102.5l-2-14.3c-1.5-0.9-4.2-2.8-6.9-5.8c-3.7-4.1-8.1-11.1-8.1-21.5c0-9.4,3.5-18,9.8-24.1
		c6.1-5.9,14.3-9.2,23.1-9.2c8.9,0,17,3.3,23,9.3c6.3,6.3,9.6,14.9,9.6,24.9c0,10.9-4.6,17.7-8.5,21.5c-2.7,2.6-5.3,4.1-7,4.9
		l-1,14.2H61z"/>
	<path class="st1" d="M61.5,86.5c0,0-14.8-7.1-14.8-25.5c0-18.4,13.8-30.6,30.2-30.6s29.9,12.2,29.9,31.5
		c0,19.3-15.4,24.6-15.4,24.6l-0.9,13.3h-27L61.5,86.5z"/>
	<path class="st2" d="M72.5,99.8"/>
	<path class="st3" d="M61.5,86.5c0,0-14.8-7.1-14.8-25.5c0-18.4,13.8-30.6,30.2-30.6s29.9,12.2,29.9,31.5
		c0,19.3-15.4,24.6-15.4,24.6l-0.9,13.3h-27L61.5,86.5z"/>
	<path class="st4" d="M81.6,98.4c0,0,0-15.4,0-17.9c0-2.5,3.6-10.9,4.8-13.1c1.3-2.1,1.7-5.7,1.7-5.7s0.1,3.8-2.3,3.8
		c-2.3,0-1.9-2.2-1.9-2.2c0,2.5-1.5,2.1-1.5,2.1c-2.4,0-2-2-2-2c0,1.3,0.1,2.1-1.9,2.1c-2,0-1.8-1.9-1.8-1.9c0,1.5-0.1,1.8-1.8,1.8
		c-1.7,0-1.7-1.8-1.7-1.8c0,1.2-0.4,1.8-1.9,1.8c-1.5,0-1.4-1.8-1.4-1.8s0,2.2-2,2.2s-2.7-4.2-2.7-4.2s1.4,5.2,2.2,6.7
		c0.8,1.4,4.7,10.3,4.7,12.3c0,2,0,17.6,0,17.6H81.6L81.6,98.4"/>
	<g>
		<path class="st5" d="M78.9,105.7c0,0,9.9,0,11.5,0c1.6,0,2.6-0.4,2.6-2.2c0-1.8,0.2-3.7-2.6-3.7c-2.7,0-7.3,0-11.5,0h-2.2
			c-4.2,0-8.7,0-11.5,0c-2.7,0-2.6,1.9-2.6,3.7c0,1.8,1,2.2,2.6,2.2c1.6,0,11.5,0,11.5,0H78.9z"/>
		<path class="st5" d="M78.9,111.6c0,0,9.9,0,11.5,0c1.6,0,2.6-0.4,2.6-2.2c0-1.8,0.2-3.7-2.6-3.7c-2.7,0-7.3,0-11.5,0h-2.2
			c-4.2,0-8.7,0-11.5,0c-2.7,0-2.6,1.9-2.6,3.7c0,1.8,1,2.2,2.6,2.2c1.6,0,11.5,0,11.5,0H78.9z"/>
		<path class="st5" d="M78.9,117.6c0,0,9.9,0,11.5,0c1.6,0,2.6-0.4,2.6-2.2c0-1.8,0.2-3.7-2.6-3.7c-2.7,0-7.3,0-11.5,0h-2.2
			c-4.2,0-8.7,0-11.5,0c-2.7,0-2.6,1.9-2.6,3.7c0,1.8,1,2.2,2.6,2.2c1.6,0,11.5,0,11.5,0H78.9z"/>
	</g>
	<path class="st6" d="M82.4,102.1c-0.1,0-12.4,0-14.1,0c-1.7,0-2.9,0.3-2.9,1.8c0,1.5,1.3,1.7,3.2,1.3
		C70.4,104.8,82.4,102.1,82.4,102.1z"/>
	<path class="st6" d="M78.1,104.5c-2.6,0.6-9.5,2-10.7,2.2c-1.2,0.2-2.2,0.5-1.9,2.1c0.3,1.6,1.3,1.6,3.1,1.3
		c1.8-0.3,18.4-4.1,19.9-4.5c1.5-0.4,2.5-1.1,2.1-2.6c-0.5-1.5-1.4-1.4-2.7-1.1C86.6,102.4,78.1,104.5,78.1,104.5z"/>
	<path class="st6" d="M78.1,109.4c-2.6,0.6-9.5,2-10.7,2.2c-1.2,0.2-2.2,0.5-1.9,2.1c0.3,1.6,1.3,1.6,3.1,1.3
		c1.8-0.3,18.4-4.1,19.9-4.5c1.5-0.4,2.5-1.1,2.1-2.6c-0.5-1.5-1.4-1.4-2.7-1.1C86.6,107.3,78.1,109.4,78.1,109.4z"/>
	<path class="st6" d="M73.9,115.2c0.1,0,12.4,0,14.1,0c1.7,0,2.9-0.3,2.9-1.8c0-1.5-1.3-1.7-3.1-1.3
		C85.9,112.5,73.9,115.2,73.9,115.2z"/>
	<path class="st5" d="M67.4,117.9c0,1.9,3.2,7.1,10.8,7.1c7.7,0,9.6-7.1,9.6-7.1H67.4z"/>
	<g>
		<path class="st6" d="M78.4,121.6c-1.4,0-3.9-0.5-5.1-1.4c-1.2-0.9-1.6-0.9-2.2-0.2c-0.6,0.8-0.2,1.3,0.7,1.9c0.9,0.5,2.6,2,6.6,2"
			/>
		<path class="st6" d="M77.7,121.6c1.4,0,3.9-0.5,5.1-1.4c1.2-0.9,1.6-0.9,2.2-0.2c0.6,0.8,0.2,1.3-0.7,1.9c-0.9,0.5-2.6,2-6.6,2"/>
	</g>
</g>
<polygon class="st7" points="87.7,42.8 65.6,62.7 74.1,62.7 65.6,77.8 87.7,57.9 78.4,57.9 "/>
</svg>
