<svg xmlns="http://www.w3.org/2000/svg" xmlns:xlink="http://www.w3.org/1999/xlink" viewBox="0 0 111.01 66.06"><defs><style>.cls-1{fill:#fff;}.cls-2{fill:#010102;}.cls-3{fill:#ee3325;}.cls-4{fill:#11c1f3;}</style><symbol id="picksoul-logo-form-white" data-name="picksoul-logo-form-white" viewBox="0 0 928.2 928.2"><circle class="cls-1" cx="465.03" cy="453.32" r="421.35"/><path class="cls-2" d="M474.8,762.1h0a12.1,12.1,0,0,1-1.9.1H471v-.1"/><polygon class="cls-3" points="438 384.8 386.8 384.8 555.6 233.4 486.6 345 541.4 345 377.3 492.2 438 384.8"/><path class="cls-1" d="M573.6,649.9"/><path class="cls-1" d="M573.6,672.3"/><path class="cls-4" d="M464.1,0C207.8,0,0,207.8,0,464.1S207.8,928.2,464.1,928.2,928.2,720.4,928.2,464.1,720.4,0,464.1,0ZM615.4,506a172.38,172.38,0,0,1-43.7,30.8l-11,62.9c1.1.8,20.4,7.3,20.3,25.7,0,0-.4,17.1-7.4,24.4a21.27,21.27,0,0,1,7.6,16.5c0,9.3-8.8,22.1-10.6,22.5,1.5.8,9.5,3.9,9.5,19.8,0,0-4.4,24.6-27.5,24.6l-4.5.2c-8.3,20.2-31.3,49.6-74,49.6-42.9,0-69.5-22.6-79.8-43.1-23.3,0-32.1-20-32.5-29,0,0-1.9-16.2,5.6-19.7,0,0-10.9-9.5-10.9-21.9,0-11,6.3-17,6.3-17-6.5-8.9-7.3-22.4-7.3-22.4,0-12.2,9.5-21,16.8-26.2L353.4,536a201.5,201.5,0,0,1-43.3-35.9c-23.1-25.5-50.7-69.4-50.7-134.2,0-58.9,21.7-112.5,61-150.8,38-36.9,89.2-57.3,144.4-57.3,55.4,0,106.5,20.7,143.7,58.2,39.2,39.5,59.9,93.3,59.9,155.7C668.6,440.1,639.7,482.5,615.4,506Z"/><path class="cls-1" d="M573.6,649.9Z"/><path class="cls-1" d="M573.6,672.9"/><path class="cls-4" d="M471,761.7c-22.6-.8-32.2-9.1-37.5-12.3-5.6-3.4-8.4-7-4.5-11.8s6.5-4.5,14.1,1.1c7.1,5.2,20.8,8.3,29.9,8.7,9.1-.4,22.8-3.4,29.9-8.7,7.6-5.6,10.1-5.9,14.1-1.1s1.1,8.4-4.5,11.8c-5.3,3.2-15,11.5-37.5,12.3"/><path class="cls-4" d="M535.1,708c-10.7,0-87.2-.3-88,0,0,0,74.8-17.2,86.3-19.4s19.7-1.4,19.7,8.2S545.8,708,535.1,708Z"/><path class="cls-4" d="M534.4,656.4c7.9-2,13.8-2.5,16.6,6.7s-3.4,13.8-12.9,16S425,705,413.5,706.9s-17.4,1.7-19.4-8.2,4.5-11.8,12.1-13.2,50.3-10.4,66.8-14.1c-.1.2,53.5-13,61.4-15"/><path class="cls-4" d="M406.1,655.3c7.6-1.4,50.3-10.4,66.8-14.1,0,0,53.6-13.2,61.5-15.2s13.8-2.5,16.6,6.8-3.4,13.8-12.9,16S425,674.7,413.5,676.6s-17.4,1.7-19.4-8.2C392.1,658.7,398.5,656.7,406.1,655.3Z"/><path class="cls-4" d="M412,626c10.7,0,87.2.3,88,0,0,0-74.8,17.2-86.3,19.4s-19.7,1.4-19.7-8.2S401.3,626,412,626Z"/></symbol></defs><title>2_2_18Artboard 1</title><g id="Layer_1" data-name="Layer 1"><polygon class="cls-1" points="-0.83 0 -0.83 54 35.78 66 110.3 0 -0.83 0"/><use id="picksoul-logo-form-white-3" data-name="picksoul-logo-form-white" width="928.2" height="928.2" transform="translate(7.89 9.22) scale(0.05)" xlink:href="#picksoul-logo-form-white"/></g></svg>