<svg id="Layer_1" data-name="Layer 1" xmlns="http://www.w3.org/2000/svg" viewBox="0 0 240 52"><defs><style>.cls-1,.cls-11{fill:#fff;}.cls-1{stroke:#ff0;stroke-width:2px;}.cls-1,.cls-2{stroke-miterlimit:10;}.cls-10,.cls-12,.cls-13,.cls-14,.cls-15,.cls-16,.cls-18,.cls-19,.cls-2,.cls-20,.cls-21,.cls-4,.cls-5,.cls-6,.cls-7,.cls-8,.cls-9{fill:#05596d;}.cls-2{stroke:#ff2;}.cls-10,.cls-13,.cls-14,.cls-15,.cls-16,.cls-17,.cls-18,.cls-19,.cls-20,.cls-21,.cls-3,.cls-4,.cls-5,.cls-6,.cls-7,.cls-8,.cls-9{isolation:isolate;}.cls-13,.cls-16,.cls-3,.cls-4,.cls-5,.cls-6,.cls-8{font-size:10px;}.cls-3{fill:#ff0;}.cls-13,.cls-3{font-family:HelveticaNeue, Helvetica Neue;}.cls-10,.cls-14,.cls-15,.cls-16,.cls-18,.cls-19,.cls-20,.cls-21,.cls-4,.cls-5,.cls-6,.cls-7,.cls-8,.cls-9{font-family:HelveticaNeue-Bold, Helvetica Neue;font-weight:700;}.cls-4{letter-spacing:0.06em;}.cls-5{letter-spacing:-0.04em;}.cls-13,.cls-6{letter-spacing:0.06em;}.cls-10,.cls-7,.cls-9{font-size:21px;}.cls-8{letter-spacing:0.12em;}.cls-9{letter-spacing:-0.06em;}.cls-10{letter-spacing:-0.09em;}.cls-14{font-size:18px;letter-spacing:0.06em;}.cls-15,.cls-20{font-size:12px;}.cls-15{letter-spacing:0em;}.cls-16{letter-spacing:-0.05em;}.cls-18,.cls-19{font-size:20px;}.cls-18{letter-spacing:0.06em;}.cls-19{letter-spacing:0.04em;}.cls-20{letter-spacing:0.1em;}.cls-21{font-size:9px;letter-spacing:-0.02em;}</style></defs><title>home_icons</title><rect class="cls-1" x="64.37" y="1.07" width="49.25" height="48.89" rx="5.09" ry="5.09"/><path class="cls-2" d="M113.62,35.17v9.7a5.09,5.09,0,0,1-5,5.13H69.46a5.09,5.09,0,0,1-5.09-5.09h0v-9.7S113.77,35,113.62,35.17Z"/><text class="cls-3" transform="translate(67.48 46.12)">100% DV</text><text class="cls-4" transform="translate(67.74 13.54)">VI</text><text class="cls-5" transform="translate(77.56 13.54)">T</text><text class="cls-6" transform="translate(82.94 13.54)">AMIN</text><text class="cls-7" transform="translate(66.25 31.5)">Pete</text><rect class="cls-1" x="126.37" y="1.07" width="49.25" height="48.89" rx="5.09" ry="5.09"/><path class="cls-2" d="M175.63,35.17v9.7a5.09,5.09,0,0,1-5,5.13H131.47a5.09,5.09,0,0,1-5.09-5.09v-9.7S175.77,35,175.63,35.17Z"/><text class="cls-3" transform="translate(129.48 46.12)">100% DV</text><text class="cls-8" transform="translate(136.36 13.54)">LEAN</text><text class="cls-9" transform="translate(135.21 31.95)">U</text><text class="cls-10" transform="translate(152.51 31.95)">X</text><rect class="cls-11" x="188.75" y="1.07" width="49.25" height="48.89" rx="5.09" ry="5.09"/><path class="cls-12" d="M238,35.17v9.7A5.09,5.09,0,0,1,233,50H193.84a5.09,5.09,0,0,1-5.09-5.09v-9.7S238.15,35,238,35.17Z"/><text class="cls-3" transform="translate(192.86 46.12)">100% DV</text><text class="cls-13" transform="translate(205.74 10.54)">SO</text><text class="cls-14" transform="translate(195.04 30.5)">F</text><text class="cls-14" transform="translate(206.34 30.5)">A</text><text class="cls-14" transform="translate(218.79 30.5)">T</text><rect class="cls-1" x="188.75" y="1.07" width="49.25" height="48.89" rx="5.09" ry="5.09"/><text class="cls-15" transform="translate(192.1 31.26)">WHEEL</text><text class="cls-16" transform="translate(190.82 44.19)">SPINNING</text><g class="cls-17"><text class="cls-18" transform="translate(192.6 18.02)">ze</text><text class="cls-19" transform="translate(214.4 18.02)">r</text><text class="cls-18" transform="translate(222.14 18.02)">o</text></g><rect class="cls-1" x="2" y="1.56" width="49.25" height="48.89" rx="5.09" ry="5.09"/><text class="cls-14" transform="translate(9.85 19.02)">75</text><text class="cls-4" transform="translate(31.88 19.02)">kg</text><text class="cls-20" transform="translate(5.19 46.19)">STYLE</text><text class="cls-21" transform="translate(5.35 31.26)">ORIGINAL</text></svg>