<?xml version="1.0" encoding="utf-8"?>
<!-- Generator: Adobe Illustrator 21.1.0, SVG Export Plug-In . SVG Version: 6.00 Build 0)  -->
<svg version="1.1" id="Layer_1" xmlns="http://www.w3.org/2000/svg" xmlns:xlink="http://www.w3.org/1999/xlink" x="0px" y="0px"
	 viewBox="0 0 240 52" style="enable-background:new 0 0 240 52;" xml:space="preserve">
<style type="text/css">
	.st0{fill:#FFFFFF;stroke:#FFFF00;stroke-width:2;stroke-miterlimit:10;}
	.st1{fill:#05596D;stroke:#FFFF22;stroke-miterlimit:10;}
	.st2{fill:#FFFF00;}
	.st3{font-family:'HelveticaNeue';}
	.st4{font-size:10px;}
	.st5{fill:#05596D;}
	.st6{font-family:'HelveticaNeue-Bold';}
	.st7{font-size:21px;}
	.st8{letter-spacing:1;}
	.st9{letter-spacing:-1;}
	.st10{fill:#FFFFFF;}
	.st11{font-size:18px;}
	.st12{font-size:12px;}
	.st13{font-size:20px;}
	.st14{font-size:9px;}
</style>
<title>2_home_icion_set</title>
<path class="st0" d="M69.5,1.1h39.1c2.8,0,5.1,2.3,5.1,5.1v38.7c0,2.8-2.3,5.1-5.1,5.1H69.5c-2.8,0-5.1-2.3-5.1-5.1V6.2
	C64.4,3.3,66.6,1.1,69.5,1.1z"/>
<path class="st1" d="M113.6,35.2v9.7c0,2.8-2.2,5.1-5,5.1H69.5c-2.8,0-5.1-2.3-5.1-5.1v0l0,0v-9.7C64.4,35.2,113.8,35,113.6,35.2z"
	/>
<text transform="matrix(1 0 0 1 67.48 46.12)" class="st2 st3 st4">100% DV</text>
<g>
	<text transform="matrix(1 0 0 1 67.74 13.54)" class="st5 st6 st4">VI</text>
	<text transform="matrix(1 0 0 1 77.56 13.54)" class="st5 st6 st4">T</text>
	<text transform="matrix(1 0 0 1 82.94 13.54)" class="st5 st6 st4">AMIN</text>
</g>
<text transform="matrix(1 0 0 1 66.25 31.5)" class="st5 st6 st7">Pete</text>
<path class="st0" d="M131.5,1.1h39.1c2.8,0,5.1,2.3,5.1,5.1v38.7c0,2.8-2.3,5.1-5.1,5.1h-39.1c-2.8,0-5.1-2.3-5.1-5.1V6.2
	C126.4,3.3,128.6,1.1,131.5,1.1z"/>
<path class="st1" d="M175.6,35.2v9.7c0,2.8-2.2,5.1-5,5.1h-39.2c-2.8,0-5.1-2.3-5.1-5.1v-9.7C126.4,35.2,175.8,35,175.6,35.2z"/>
<text transform="matrix(1 0 0 1 129.48 46.12)" class="st2 st3 st4">100% DV</text>
<text transform="matrix(1 0 0 1 136.36 13.54)" class="st5 st6 st4 st8">LEAN</text>
<g>
	<text transform="matrix(1 0 0 1 135.21 31.95)" class="st5 st6 st7 st9">U</text>
	<text transform="matrix(1 0 0 1 152.51 31.95)" class="st5 st6 st7 st9">X</text>
</g>
<path class="st10" d="M193.8,1.1h39.1c2.8,0,5.1,2.3,5.1,5.1v38.7c0,2.8-2.3,5.1-5.1,5.1h-39.1c-2.8,0-5.1-2.3-5.1-5.1V6.2
	C188.8,3.3,191,1.1,193.8,1.1z"/>
<path class="st5" d="M238,35.2v9.7c0,2.8-2.2,5.1-5,5.1h-39.2c-2.8,0-5.1-2.3-5.1-5.1v-9.7C188.8,35.2,238.1,35,238,35.2z"/>
<text transform="matrix(1 0 0 1 192.86 46.12)" class="st2 st3 st4">100% DV</text>
<text transform="matrix(1 0 0 1 205.74 10.54)" class="st5 st3 st4">SO</text>
<text transform="matrix(1 0 0 1 195.04 30.5)" class="st5 st6 st11 st8">F</text>
<text transform="matrix(1 0 0 1 206.34 30.5)" class="st5 st6 st11 st8">A</text>
<text transform="matrix(1 0 0 1 218.79 30.5)" class="st5 st6 st11 st8">T</text>
<path class="st0" d="M193.8,1.1h39.1c2.8,0,5.1,2.3,5.1,5.1v38.7c0,2.8-2.3,5.1-5.1,5.1h-39.1c-2.8,0-5.1-2.3-5.1-5.1V6.2
	C188.8,3.3,191,1.1,193.8,1.1z"/>
<text transform="matrix(1 0 0 1 192.1 31.26)" class="st5 st6 st12">WHEEL</text>
<text transform="matrix(1 0 0 1 190.8201 44.1899)" class="st5 st6 st4">SPINNING</text>
<text transform="matrix(1 0 0 1 192.6 18.02)" class="st5 st6 st13 st8">ze</text>
<text transform="matrix(1 0 0 1 214.4 18.02)" class="st5 st6 st13">r</text>
<text transform="matrix(1 0 0 1 222.14 18.02)" class="st5 st6 st13 st8">o</text>
<path class="st0" d="M7.1,1.6h39.1c2.8,0,5.1,2.3,5.1,5.1v38.7c0,2.8-2.3,5.1-5.1,5.1H7.1c-2.8,0-5.1-2.3-5.1-5.1V6.7
	C2,3.8,4.3,1.6,7.1,1.6z"/>
<g>
	<text transform="matrix(1 0 0 1 9.85 19.02)" class="st5 st6 st11 st8">75</text>
	<text transform="matrix(1 0 0 1 31.88 19.02)" class="st5 st6 st4">kg</text>
</g>
<text transform="matrix(1 0 0 1 5.19 46.1899)" class="st5 st6 st12 st8">STYLE</text>
<text transform="matrix(1 0 0 1 5.35 31.26)" class="st5 st6 st14">ORIGINAL</text>
</svg>
