<svg xmlns="http://www.w3.org/2000/svg" viewBox="0 0 50 50"><defs><style>.cls-1{fill:#fff;}.cls-2,.cls-4,.cls-5,.cls-8,.cls-9{fill:#05596d;}.cls-3,.cls-4{font-size:10px;}.cls-3{fill:#ff0;}.cls-3,.cls-4,.cls-8{font-family:HelveticaNeue, Helvetica Neue;}.cls-4{letter-spacing:0.06em;}.cls-5{font-size:21px;}.cls-5,.cls-9{font-family:HelveticaNeue-Bold, Helvetica Neue;font-weight:700;}.cls-6{letter-spacing:-0.06em;}.cls-7{letter-spacing:-0.09em;}.cls-8{font-size:12px;letter-spacing:0.06em;}.cls-9{font-size:20px;}</style></defs><title>home_icon_wheel</title><g id="great_sense" data-name="great sense"><rect class="cls-1" x="0.37" y="0.07" width="49.25" height="48.89" rx="5.09" ry="5.09"/><path class="cls-2" d="M49.63,34.17v9.7A5.09,5.09,0,0,1,44.53,49H5.47A5.09,5.09,0,0,1,.37,43.87v-9.7S49.77,34,49.63,34.17Z"/><text class="cls-3" transform="translate(4.48 45.12)">100% DV</text><text class="cls-4" transform="translate(17.36 9.54)">SO</text><text class="cls-5" transform="translate(6.67 29.5)"><tspan class="cls-6">F</tspan><tspan class="cls-7" x="11.3" y="0">A</tspan><tspan x="23.75" y="0">T</tspan></text><rect class="cls-1" x="0.37" y="0.07" width="49.25" height="48.89" rx="5.09" ry="5.09"/><path class="cls-2" d="M49.63,34.17v9.7A5.09,5.09,0,0,1,44.53,49H5.47A5.09,5.09,0,0,1,.37,43.87v-9.7S49.77,34,49.63,34.17Z"/><text class="cls-3" transform="translate(9.21 45.12)">0% DV</text><text class="cls-8" transform="translate(2.73 12.54)">WHEEL</text><text class="cls-9" transform="translate(1.44 30.5)">SPIN</text></g></svg>