<svg xmlns="http://www.w3.org/2000/svg" viewBox="0 0 227.33 192.67"><defs><style>.cls-1,.cls-4{fill:none;}.cls-1{stroke:#11c1f3;}.cls-1,.cls-2,.cls-3,.cls-4,.cls-5,.cls-6{stroke-miterlimit:10;}.cls-2,.cls-3{fill:#11c1f3;}.cls-2{stroke:#fff;stroke-width:6px;}.cls-3,.cls-4,.cls-5,.cls-6{stroke:#05596d;}.cls-3,.cls-4{stroke-width:4px;}.cls-5,.cls-6{fill:#ff0;}.cls-6{stroke-width:0.75px;}</style></defs><title>2_2_18Artboard 1</title><g id="guides"><line class="cls-1" x1="218.05" y1="137.33" x2="9.28" y2="137.33"/><path class="cls-2" d="M219,100v73c0,6.6-2.84,12-6.32,12h-198c-3.47,0-6.32-5.4-6.32-12V100"/></g><g id="Layer_1" data-name="Layer 1"><path class="cls-3" d="M219,100v73c0,6.6-2.84,12-6.32,12h-198c-3.47,0-6.32-5.4-6.32-12V100"/><path class="cls-3" d="M8.37,100V27c0-6.6,2.84-12,6.32-12h198c3.47,0,6.32,5.4,6.32,12v73"/><line class="cls-4" x1="9.94" y1="96.42" x2="218.71" y2="96.42"/></g><g id="great_sense" data-name="great sense"><path class="cls-5" d="M64.19,27.2a3.16,3.16,0,0,0-.7-.79,3.24,3.24,0,0,0-.95-.53,3.27,3.27,0,0,0-1.11-.19,3.66,3.66,0,0,0-1.8.41,3.4,3.4,0,0,0-1.2,1.1,4.83,4.83,0,0,0-.67,1.57,7.83,7.83,0,0,0-.21,1.82,7.28,7.28,0,0,0,.21,1.75,4.73,4.73,0,0,0,.67,1.53A3.43,3.43,0,0,0,59.63,35a3.66,3.66,0,0,0,1.8.41,2.9,2.9,0,0,0,2.25-.88,4.07,4.07,0,0,0,1-2.32h3a7.27,7.27,0,0,1-.62,2.42,5.8,5.8,0,0,1-1.32,1.84,5.61,5.61,0,0,1-1.92,1.16,7,7,0,0,1-2.42.4,7.32,7.32,0,0,1-2.95-.57,6.32,6.32,0,0,1-2.21-1.57,7,7,0,0,1-1.38-2.35,8.62,8.62,0,0,1-.48-2.91,8.91,8.91,0,0,1,.48-3,7.13,7.13,0,0,1,1.38-2.39,6.31,6.31,0,0,1,2.21-1.6,7.65,7.65,0,0,1,5.18-.24,6,6,0,0,1,1.88,1A5.36,5.36,0,0,1,66.91,26a5.75,5.75,0,0,1,.68,2.2h-3A2.57,2.57,0,0,0,64.19,27.2Z"/><path class="cls-5" d="M73,23.39v5.48h5.78V23.39h3.14V37.67H78.77V31.51H73v6.16H69.85V23.39Z"/><path class="cls-5" d="M91.79,23.39l5.34,14.28H93.87l-1.08-3.18H87.45l-1.12,3.18H83.17l5.4-14.28ZM92,32.15l-1.8-5.24h0l-1.86,5.24Z"/><path class="cls-5" d="M101.51,23.39V35h7v2.64H98.37V23.39Z"/><path class="cls-5" d="M113.37,23.39v5.92l5.58-5.92h3.92L117.29,29l6.12,8.64h-3.94l-4.3-6.42-1.8,1.82v4.6h-3.14V23.39Z"/><path class="cls-5" d="M140.27,23.39V26h-6.9v3.3h6v2.44h-6v5.9h-3.14V23.39Z"/><path class="cls-5" d="M152.59,36.58a7.86,7.86,0,0,1-9,0A5.46,5.46,0,0,1,142,32.27V23.39h3.14v8.88a6.5,6.5,0,0,0,.1,1.14,2.22,2.22,0,0,0,1.31,1.69,3.62,3.62,0,0,0,1.53.27,2.94,2.94,0,0,0,2.32-.75,3.57,3.57,0,0,0,.64-2.35V23.39h3.14v8.88A5.41,5.41,0,0,1,152.59,36.58Z"/><path class="cls-5" d="M160,23.39V35h7v2.64h-10.1V23.39Z"/><path class="cls-5" d="M171.91,23.39V35h7v2.64h-10.1V23.39Z"/><path class="cls-5" d="M33.56,68.05v5.48h5.78V68.05h3.14V82.33H39.34V76.17H33.56v6.16H30.42V68.05Z"/><path class="cls-5" d="M55.74,81.24a6.6,6.6,0,0,1-4.48,1.41,6.57,6.57,0,0,1-4.49-1.4,5.46,5.46,0,0,1-1.59-4.32V68.05h3.14v8.88a6.45,6.45,0,0,0,.1,1.14,2.22,2.22,0,0,0,1.31,1.69,3.62,3.62,0,0,0,1.53.27,2.94,2.94,0,0,0,2.32-.75,3.58,3.58,0,0,0,.64-2.35V68.05h3.14v8.88A5.41,5.41,0,0,1,55.74,81.24Z"/><path class="cls-5" d="M62.46,78.81a2.27,2.27,0,0,0,.69.81,3,3,0,0,0,1,.46,4.77,4.77,0,0,0,1.2.15,6.23,6.23,0,0,0,.9-.07,3.14,3.14,0,0,0,.9-.27,2,2,0,0,0,.7-.55,1.38,1.38,0,0,0,.28-.89,1.25,1.25,0,0,0-.37-.94,2.93,2.93,0,0,0-1-.6,9.61,9.61,0,0,0-1.36-.42q-.76-.18-1.54-.4a13.52,13.52,0,0,1-1.56-.49A5.37,5.37,0,0,1,61,74.85a3.53,3.53,0,0,1-1-1.15A3.49,3.49,0,0,1,59.64,72a3.74,3.74,0,0,1,.47-1.91,4.25,4.25,0,0,1,1.23-1.35,5.36,5.36,0,0,1,1.72-.8A7.32,7.32,0,0,1,65,67.71a9.1,9.1,0,0,1,2.15.25,5.37,5.37,0,0,1,1.83.81,4.1,4.1,0,0,1,1.27,1.43,4.38,4.38,0,0,1,.47,2.11h-3a2.53,2.53,0,0,0-.27-1.06,1.77,1.77,0,0,0-.61-.66,2.59,2.59,0,0,0-.87-.34,5.38,5.38,0,0,0-1.07-.1,3.69,3.69,0,0,0-.76.08,2,2,0,0,0-.69.28,1.72,1.72,0,0,0-.51.5,1.34,1.34,0,0,0-.2.76,1.28,1.28,0,0,0,.16.68,1.42,1.42,0,0,0,.63.48,8,8,0,0,0,1.3.44l2.17.56q.4.08,1.11.29a5.31,5.31,0,0,1,1.41.67,4.27,4.27,0,0,1,1.21,1.23,3.5,3.5,0,0,1,.51,2,4.37,4.37,0,0,1-.38,1.82,4,4,0,0,1-1.13,1.45,5.42,5.42,0,0,1-1.86,1,8.79,8.79,0,0,1-2.57.34,9,9,0,0,1-2.29-.29,5.75,5.75,0,0,1-2-.91,4.49,4.49,0,0,1-1.35-1.58,4.72,4.72,0,0,1-.48-2.28h3A2.62,2.62,0,0,0,62.46,78.81Z"/><path class="cls-5" d="M71.92,70.69V68.05h11.7v2.64H79.34V82.33H76.2V70.69Z"/><path class="cls-5" d="M88.4,68.05V79.69h7v2.64H85.26V68.05Z"/><path class="cls-5" d="M107.8,68.05v2.64h-7.54v3.06h6.92v2.44h-6.92v3.5H108v2.64H97.12V68.05Z"/><path class="cls-5" d="M121.71,82.17a5.46,5.46,0,0,1-2.19.42,5.75,5.75,0,0,1-1.81-.28,4.12,4.12,0,0,1-1.47-.83,4,4,0,0,1-1-1.34,4.32,4.32,0,0,1-.36-1.81,3.6,3.6,0,0,1,.26-1.39,4,4,0,0,1,.71-1.14,5.57,5.57,0,0,1,1-.91,9,9,0,0,1,1.2-.7,9.25,9.25,0,0,1-1-1.4,3.32,3.32,0,0,1-.39-1.64,2.87,2.87,0,0,1,.31-1.34,3.28,3.28,0,0,1,.83-1,3.77,3.77,0,0,1,1.19-.66,4.25,4.25,0,0,1,1.39-.23,5.15,5.15,0,0,1,1.53.22,3.68,3.68,0,0,1,1.24.65,3.11,3.11,0,0,1,.84,1.07,3.36,3.36,0,0,1,.31,1.48,3.17,3.17,0,0,1-.73,2.12,6.19,6.19,0,0,1-1.81,1.44l1.84,2.26a3.84,3.84,0,0,0,.34-.83,6.49,6.49,0,0,0,.18-.87h2.46a7.45,7.45,0,0,1-.44,1.86,6.21,6.21,0,0,1-.94,1.66l2.9,3.38H124.7l-1.16-1.42A6.09,6.09,0,0,1,121.71,82.17Zm-2.85-5.76a3,3,0,0,0-.64.52,2.57,2.57,0,0,0-.45.66,1.85,1.85,0,0,0-.17.8,1.65,1.65,0,0,0,.17.73,1.92,1.92,0,0,0,.45.6,2.22,2.22,0,0,0,.65.4,2,2,0,0,0,.77.15,2.49,2.49,0,0,0,1.33-.35A4.82,4.82,0,0,0,122,79l-2.44-3A5.51,5.51,0,0,0,118.86,76.41Zm2.65-6.22a1.23,1.23,0,0,0-.91-.4,1.28,1.28,0,0,0-.9.35,1.18,1.18,0,0,0-.38.91,1.88,1.88,0,0,0,.36,1.16q.36.48.76,1a5.66,5.66,0,0,0,1-.82,1.67,1.67,0,0,0,.43-1.22A1.33,1.33,0,0,0,121.51,70.19Z"/><path class="cls-5" d="M137.3,78.81a2.26,2.26,0,0,0,.69.81,3,3,0,0,0,1,.46,4.77,4.77,0,0,0,1.2.15,6.23,6.23,0,0,0,.9-.07,3.14,3.14,0,0,0,.9-.27,2,2,0,0,0,.7-.55,1.38,1.38,0,0,0,.28-.89,1.25,1.25,0,0,0-.37-.94,2.92,2.92,0,0,0-1-.6,9.59,9.59,0,0,0-1.36-.42q-.76-.18-1.54-.4a13.53,13.53,0,0,1-1.56-.49,5.37,5.37,0,0,1-1.36-.75,3.54,3.54,0,0,1-1-1.15,3.49,3.49,0,0,1-.37-1.67,3.74,3.74,0,0,1,.47-1.91,4.24,4.24,0,0,1,1.23-1.35,5.37,5.37,0,0,1,1.72-.8,7.32,7.32,0,0,1,1.92-.26A9.09,9.09,0,0,1,142,68a5.37,5.37,0,0,1,1.83.81,4.1,4.1,0,0,1,1.27,1.43,4.38,4.38,0,0,1,.47,2.11h-3a2.54,2.54,0,0,0-.27-1.06,1.77,1.77,0,0,0-.61-.66,2.6,2.6,0,0,0-.87-.34,5.38,5.38,0,0,0-1.07-.1,3.69,3.69,0,0,0-.76.08,2,2,0,0,0-.69.28,1.72,1.72,0,0,0-.51.5,1.34,1.34,0,0,0-.2.76,1.29,1.29,0,0,0,.16.68,1.42,1.42,0,0,0,.63.48,8,8,0,0,0,1.3.44l2.17.56q.4.08,1.11.29a5.31,5.31,0,0,1,1.41.67,4.26,4.26,0,0,1,1.21,1.23,3.5,3.5,0,0,1,.51,2,4.37,4.37,0,0,1-.38,1.82,3.94,3.94,0,0,1-1.13,1.45,5.42,5.42,0,0,1-1.86,1,8.79,8.79,0,0,1-2.57.34,9,9,0,0,1-2.29-.29,5.75,5.75,0,0,1-2-.91,4.48,4.48,0,0,1-1.35-1.58,4.72,4.72,0,0,1-.48-2.28h3A2.61,2.61,0,0,0,137.3,78.81Z"/><path class="cls-5" d="M154.32,68.05a6,6,0,0,1,2.28.39,4.27,4.27,0,0,1,1.53,1,4,4,0,0,1,.86,1.46,5.46,5.46,0,0,1,0,3.39,4,4,0,0,1-.86,1.47,4.27,4.27,0,0,1-1.53,1,6,6,0,0,1-2.28.39H151v5.12h-3.14V68.05Zm-.86,6.72a6.54,6.54,0,0,0,1-.08,2.41,2.41,0,0,0,.88-.31,1.69,1.69,0,0,0,.61-.65,2.75,2.75,0,0,0,0-2.2,1.7,1.7,0,0,0-.61-.65,2.43,2.43,0,0,0-.88-.31,6.6,6.6,0,0,0-1-.08H151v4.28Z"/><path class="cls-5" d="M164.36,68.05V82.33h-3.14V68.05Z"/><path class="cls-5" d="M174.82,68.05a4.6,4.6,0,0,1,1.73.31,4,4,0,0,1,1.32.85,3.7,3.7,0,0,1,.84,1.25A4,4,0,0,1,179,72a4.3,4.3,0,0,1-.53,2.18,3.33,3.33,0,0,1-1.73,1.4v0a2.42,2.42,0,0,1,1,.49,2.73,2.73,0,0,1,.62.78,3.66,3.66,0,0,1,.35,1,8.71,8.71,0,0,1,.15,1.08c0,.23,0,.49,0,.8s0,.62.07.94a6.16,6.16,0,0,0,.16.91,2.09,2.09,0,0,0,.33.73h-3.14a5.52,5.52,0,0,1-.32-1.62q-.06-.94-.18-1.8a2.84,2.84,0,0,0-.68-1.64,2.34,2.34,0,0,0-1.7-.52h-3.14v5.58h-3.14V68.05Zm-1.12,6.46a2.37,2.37,0,0,0,1.62-.48,2,2,0,0,0,.54-1.56,1.9,1.9,0,0,0-.54-1.51,2.41,2.41,0,0,0-1.62-.47h-3.44v4Z"/><path class="cls-5" d="M184.7,68.05V82.33h-3.14V68.05Z"/><path class="cls-5" d="M186.34,70.69V68.05H198v2.64h-4.28V82.33h-3.14V70.69Z"/><path class="cls-6" d="M19.89,116.13a1.49,1.49,0,0,0,.44.49,1.88,1.88,0,0,0,.62.28,2.91,2.91,0,0,0,.73.09,2.72,2.72,0,0,0,.57-.06,1.91,1.91,0,0,0,.54-.2,1.22,1.22,0,0,0,.4-.36,1,1,0,0,0,.16-.57q0-.58-.77-.86a15.22,15.22,0,0,0-2.13-.58q-.56-.13-1.09-.3a3.74,3.74,0,0,1-.95-.45,2.19,2.19,0,0,1-.67-.7,2,2,0,0,1-.25-1,2.8,2.8,0,0,1,.35-1.48,2.58,2.58,0,0,1,.93-.91,4.06,4.06,0,0,1,1.3-.47,8,8,0,0,1,1.48-.13A7.41,7.41,0,0,1,23,109a3.9,3.9,0,0,1,1.27.49,2.91,2.91,0,0,1,.93.91,3.05,3.05,0,0,1,.44,1.43H23.23a1.12,1.12,0,0,0-.56-1,2.55,2.55,0,0,0-1.19-.26l-.47,0a1.57,1.57,0,0,0-.46.12,1,1,0,0,0-.35.26.69.69,0,0,0-.14.46.7.7,0,0,0,.25.56,1.94,1.94,0,0,0,.66.35,8.18,8.18,0,0,0,.93.24l1.06.23a11,11,0,0,1,1.09.31,3.59,3.59,0,0,1,.95.48,2.31,2.31,0,0,1,.67.74,2.17,2.17,0,0,1,.25,1.09A2.83,2.83,0,0,1,24.58,118a3.94,3.94,0,0,1-1.36.53,7.92,7.92,0,0,1-1.56.15,7.73,7.73,0,0,1-1.58-.16A4.18,4.18,0,0,1,18.7,118a3.08,3.08,0,0,1-1-1,3.12,3.12,0,0,1-.42-1.56h2.43A1.4,1.4,0,0,0,19.89,116.13Z"/><path class="cls-6" d="M27.47,107.7v-2.11H30v2.11ZM30,109.14v9.31H27.47v-9.31Z"/><path class="cls-6" d="M34.53,109.14v1.26h0a3.63,3.63,0,0,1,1.21-1.12,3.29,3.29,0,0,1,1.63-.4,3.76,3.76,0,0,1,1.61.34,2.27,2.27,0,0,1,1.11,1.21,4,4,0,0,1,1.13-1.08,3,3,0,0,1,1.68-.47,5,5,0,0,1,1.37.18,2.76,2.76,0,0,1,1.08.58,2.65,2.65,0,0,1,.7,1,4.2,4.2,0,0,1,.25,1.54v6.23H43.78v-5.27q0-.47,0-.88a1.88,1.88,0,0,0-.2-.72,1.2,1.2,0,0,0-.48-.49,1.72,1.72,0,0,0-.85-.18,1.63,1.63,0,0,0-.87.21,1.5,1.5,0,0,0-.52.54,2.16,2.16,0,0,0-.25.76,5.78,5.78,0,0,0-.06.86v5.18H37.95v-5.22q0-.41,0-.82a2.28,2.28,0,0,0-.15-.75,1.15,1.15,0,0,0-.45-.55,1.69,1.69,0,0,0-.93-.21,1.9,1.9,0,0,0-.48.08,1.58,1.58,0,0,0-.58.31,1.78,1.78,0,0,0-.48.65,2.62,2.62,0,0,0-.2,1.11v5.4H32.12v-9.31Z"/><path class="cls-6" d="M50.78,109.14v1.19h0a2.81,2.81,0,0,1,1.19-1.1,3.65,3.65,0,0,1,1.58-.34,4,4,0,0,1,1.89.41,3.92,3.92,0,0,1,1.31,1.1,4.67,4.67,0,0,1,.77,1.59,7.09,7.09,0,0,1,.25,1.9,6.41,6.41,0,0,1-.25,1.8,4.59,4.59,0,0,1-.77,1.53,3.8,3.8,0,0,1-1.28,1.06,3.85,3.85,0,0,1-1.79.4,3.62,3.62,0,0,1-1.59-.35,3,3,0,0,1-1.2-1h0v4.41H48.35V109.14Zm3.32,7.38a2.06,2.06,0,0,0,.68-.66,2.71,2.71,0,0,0,.37-.95,5.58,5.58,0,0,0,.11-1.1,5.17,5.17,0,0,0-.12-1.1,2.94,2.94,0,0,0-.39-1,2.16,2.16,0,0,0-.69-.68,1.94,1.94,0,0,0-1-.26,2,2,0,0,0-1.05.26,2.1,2.1,0,0,0-.68.67,2.8,2.8,0,0,0-.37,1,5.68,5.68,0,0,0-.11,1.12,5.18,5.18,0,0,0,.12,1.1,2.84,2.84,0,0,0,.38.95,2.18,2.18,0,0,0,2.79.66Z"/><path class="cls-6" d="M62,105.59v12.85H59.42V105.59Z"/><path class="cls-6" d="M66.73,116.21a2.62,2.62,0,0,0,3,.17,1.61,1.61,0,0,0,.68-.82h2.25A4.27,4.27,0,0,1,71,118a4.88,4.88,0,0,1-2.7.72,5.31,5.31,0,0,1-2-.35,4.11,4.11,0,0,1-1.49-1,4.49,4.49,0,0,1-.95-1.55,5.66,5.66,0,0,1-.33-2,5.42,5.42,0,0,1,.34-1.94,4.49,4.49,0,0,1,2.48-2.59,4.82,4.82,0,0,1,1.93-.38,4.43,4.43,0,0,1,2.07.46,4.14,4.14,0,0,1,1.45,1.23,5.08,5.08,0,0,1,.82,1.76,6.58,6.58,0,0,1,.18,2.07H66.1A2.59,2.59,0,0,0,66.73,116.21Zm2.89-4.9a1.8,1.8,0,0,0-1.4-.5,2.23,2.23,0,0,0-1,.21,2,2,0,0,0-.65.51,1.88,1.88,0,0,0-.34.65,2.91,2.91,0,0,0-.12.61h4.16A3,3,0,0,0,69.62,111.32Z"/><path class="cls-6" d="M82.26,115.67v2.77H79.44v-2.77Z"/><path class="cls-6" d="M88.37,110.85v-1.71H89.9v-.72a2.79,2.79,0,0,1,.77-2,3.14,3.14,0,0,1,2.34-.79l.68,0,.67,0v1.91a7.92,7.92,0,0,0-.94-.05,1,1,0,0,0-.75.24,1.19,1.19,0,0,0-.23.82v.56h1.76v1.71H92.45v7.6H89.9v-7.6Z"/><path class="cls-6" d="M97.76,109.14v1.73h0a3.11,3.11,0,0,1,.49-.8,3.17,3.17,0,0,1,.7-.63,3.45,3.45,0,0,1,.85-.41,3.07,3.07,0,0,1,.94-.14,2,2,0,0,1,.56.09v2.38l-.43-.06-.49,0a2.73,2.73,0,0,0-1.19.23,2.06,2.06,0,0,0-.78.64,2.55,2.55,0,0,0-.42.94,5.16,5.16,0,0,0-.13,1.17v4.19H95.33v-9.31Z"/><path class="cls-6" d="M104.75,116.21a2.62,2.62,0,0,0,3,.17,1.61,1.61,0,0,0,.68-.82h2.25A4.27,4.27,0,0,1,109,118a4.88,4.88,0,0,1-2.7.72,5.31,5.31,0,0,1-2-.35,4.11,4.11,0,0,1-1.49-1,4.49,4.49,0,0,1-.95-1.55,5.66,5.66,0,0,1-.33-2,5.42,5.42,0,0,1,.34-1.94,4.49,4.49,0,0,1,2.47-2.59,4.82,4.82,0,0,1,1.93-.38,4.43,4.43,0,0,1,2.07.46,4.14,4.14,0,0,1,1.45,1.23,5.08,5.08,0,0,1,.82,1.76,6.58,6.58,0,0,1,.18,2.07h-6.71A2.59,2.59,0,0,0,104.75,116.21Zm2.89-4.9a1.8,1.8,0,0,0-1.4-.5,2.23,2.23,0,0,0-1,.21,2,2,0,0,0-.65.51,1.88,1.88,0,0,0-.34.65,2.91,2.91,0,0,0-.12.61h4.16A3,3,0,0,0,107.64,111.32Z"/><path class="cls-6" d="M114.49,116.13a1.48,1.48,0,0,0,.44.49,1.88,1.88,0,0,0,.62.28,2.91,2.91,0,0,0,.73.09,2.72,2.72,0,0,0,.57-.06,1.91,1.91,0,0,0,.54-.2,1.23,1.23,0,0,0,.41-.36,1,1,0,0,0,.16-.57q0-.58-.77-.86a15.19,15.19,0,0,0-2.13-.58q-.56-.13-1.09-.3a3.74,3.74,0,0,1-.95-.45,2.19,2.19,0,0,1-.67-.7,2,2,0,0,1-.25-1,2.8,2.8,0,0,1,.35-1.48,2.58,2.58,0,0,1,.93-.91,4.06,4.06,0,0,1,1.3-.47,8,8,0,0,1,1.48-.13,7.42,7.42,0,0,1,1.47.14,3.91,3.91,0,0,1,1.27.49,2.92,2.92,0,0,1,.93.91,3.05,3.05,0,0,1,.44,1.43h-2.43a1.12,1.12,0,0,0-.56-1,2.54,2.54,0,0,0-1.19-.26l-.47,0a1.57,1.57,0,0,0-.46.12,1,1,0,0,0-.35.26.69.69,0,0,0-.14.46.7.7,0,0,0,.25.56,1.94,1.94,0,0,0,.66.35,8.15,8.15,0,0,0,.93.24l1.06.23a11,11,0,0,1,1.09.31,3.6,3.6,0,0,1,.95.48,2.31,2.31,0,0,1,.67.74,2.17,2.17,0,0,1,.25,1.09,2.83,2.83,0,0,1-1.33,2.54,3.94,3.94,0,0,1-1.36.53,7.93,7.93,0,0,1-1.56.15,7.73,7.73,0,0,1-1.58-.16,4.18,4.18,0,0,1-1.38-.54,3.08,3.08,0,0,1-1-1,3.12,3.12,0,0,1-.42-1.56h2.43A1.4,1.4,0,0,0,114.49,116.13Z"/><path class="cls-6" d="M124.56,105.59v4.84h.05a3,3,0,0,1,1.24-1.18,3.36,3.36,0,0,1,1.48-.37,4.35,4.35,0,0,1,1.68.28,2.5,2.5,0,0,1,1,.77,3,3,0,0,1,.53,1.21,7.5,7.5,0,0,1,.15,1.57v5.72h-2.56v-5.26a3.26,3.26,0,0,0-.36-1.72,1.39,1.39,0,0,0-1.28-.57,1.77,1.77,0,0,0-1.51.62,3.45,3.45,0,0,0-.47,2v4.88H122V105.59Z"/><path class="cls-6" d="M140.62,115.67v2.77h-2.83v-2.77Z"/><path class="cls-6" d="M147.75,111.78a4.25,4.25,0,0,1,2.48-2.54,5.31,5.31,0,0,1,2-.35,5.38,5.38,0,0,1,2,.35,4.24,4.24,0,0,1,2.49,2.54,5.73,5.73,0,0,1,.34,2,5.65,5.65,0,0,1-.34,2,4.37,4.37,0,0,1-1,1.54,4.22,4.22,0,0,1-1.52,1,5.52,5.52,0,0,1-2,.34,5.46,5.46,0,0,1-2-.34,4.26,4.26,0,0,1-1.51-1,4.36,4.36,0,0,1-1-1.54,5.63,5.63,0,0,1-.34-2A5.7,5.7,0,0,1,147.75,111.78Zm2.32,3.11a2.93,2.93,0,0,0,.37,1,2,2,0,0,0,.69.67,2.12,2.12,0,0,0,1.08.25,2.16,2.16,0,0,0,1.09-.25,1.94,1.94,0,0,0,.7-.67,2.88,2.88,0,0,0,.37-1,5.4,5.4,0,0,0,.11-1.09,5.54,5.54,0,0,0-.11-1.1,2.78,2.78,0,0,0-.37-1,2,2,0,0,0-.7-.67,2.11,2.11,0,0,0-1.09-.26,2,2,0,0,0-1.77.94,2.83,2.83,0,0,0-.37,1,5.63,5.63,0,0,0-.11,1.1A5.49,5.49,0,0,0,150.07,114.89Z"/><path class="cls-6" d="M161.12,109.14v1.73h0a3.13,3.13,0,0,1,.49-.8,3.19,3.19,0,0,1,.7-.63,3.45,3.45,0,0,1,.85-.41,3.07,3.07,0,0,1,.94-.14,2,2,0,0,1,.56.09v2.38l-.43-.06-.49,0a2.72,2.72,0,0,0-1.19.23,2.05,2.05,0,0,0-.78.64,2.54,2.54,0,0,0-.42.94,5.13,5.13,0,0,0-.13,1.17v4.19h-2.56v-9.31Z"/><path class="cls-6" d="M165.77,107.7v-2.11h2.56v2.11Zm2.56,1.44v9.31h-2.56v-9.31Z"/><path class="cls-6" d="M179.13,119.13a3.18,3.18,0,0,1-.66,1.34,3.92,3.92,0,0,1-1.46,1.05,6.28,6.28,0,0,1-2.56.43,6,6,0,0,1-1.4-.17,4.44,4.44,0,0,1-1.3-.53,3.18,3.18,0,0,1-1-.93,2.68,2.68,0,0,1-.44-1.36h2.54a1.46,1.46,0,0,0,.7,1,2.52,2.52,0,0,0,1.21.28,1.85,1.85,0,0,0,1.57-.65,2.54,2.54,0,0,0,.48-1.64v-1.22h0a2.53,2.53,0,0,1-1.18,1.09,3.82,3.82,0,0,1-1.61.35,4.06,4.06,0,0,1-1.8-.37,3.42,3.42,0,0,1-1.24-1,4.21,4.21,0,0,1-.71-1.49,7.08,7.08,0,0,1-.22-1.81,5.82,5.82,0,0,1,.26-1.74,4.53,4.53,0,0,1,.77-1.48,3.7,3.7,0,0,1,1.25-1,3.76,3.76,0,0,1,1.72-.38,3.6,3.6,0,0,1,1.61.34,2.79,2.79,0,0,1,1.16,1.15h0v-1.24h2.43v8.71A6.31,6.31,0,0,1,179.13,119.13Zm-3.5-3.1a2,2,0,0,0,.68-.58,2.54,2.54,0,0,0,.4-.82,3.39,3.39,0,0,0,.14-1,5.23,5.23,0,0,0-.11-1.09,2.72,2.72,0,0,0-.36-.91,1.87,1.87,0,0,0-.67-.63,2.11,2.11,0,0,0-1-.23,1.88,1.88,0,0,0-.93.22,2,2,0,0,0-.65.59,2.47,2.47,0,0,0-.38.85,4.21,4.21,0,0,0-.12,1,5.12,5.12,0,0,0,.1,1,2.69,2.69,0,0,0,.34.89,2,2,0,0,0,.64.65,1.81,1.81,0,0,0,1,.25A2,2,0,0,0,175.63,116Z"/><path class="cls-6" d="M181.41,107.7v-2.11H184v2.11Zm2.56,1.44v9.31h-2.56v-9.31Z"/><path class="cls-6" d="M188.41,109.14v1.3h.05a2.93,2.93,0,0,1,1.26-1.18,3.64,3.64,0,0,1,1.58-.37,4.34,4.34,0,0,1,1.68.28,2.5,2.5,0,0,1,1,.77,3,3,0,0,1,.53,1.21,7.51,7.51,0,0,1,.15,1.57v5.72h-2.56v-5.26a3.26,3.26,0,0,0-.36-1.72,1.39,1.39,0,0,0-1.28-.57,1.77,1.77,0,0,0-1.51.62,3.46,3.46,0,0,0-.47,2v4.88H186v-9.31Z"/><path class="cls-6" d="M196.55,112a3,3,0,0,1,.45-1.49,3.07,3.07,0,0,1,1-1,4.4,4.4,0,0,1,1.38-.51,7.83,7.83,0,0,1,1.54-.15,10.4,10.4,0,0,1,1.42.1,4.36,4.36,0,0,1,1.31.39,2.59,2.59,0,0,1,1,.8,2.24,2.24,0,0,1,.38,1.36v4.84a9.71,9.71,0,0,0,.07,1.21,2.15,2.15,0,0,0,.25.86h-2.59a3.52,3.52,0,0,1-.12-.44,3.68,3.68,0,0,1-.06-.46,3.33,3.33,0,0,1-1.44.88,5.77,5.77,0,0,1-1.69.25,4.58,4.58,0,0,1-1.24-.16,2.83,2.83,0,0,1-1-.5,2.34,2.34,0,0,1-.67-.86,2.91,2.91,0,0,1-.24-1.24,2.71,2.71,0,0,1,.28-1.3,2.34,2.34,0,0,1,.72-.82,3.22,3.22,0,0,1,1-.46,10.8,10.8,0,0,1,1.14-.24c.38-.06.76-.11,1.13-.14a6.87,6.87,0,0,0,1-.16,1.72,1.72,0,0,0,.68-.31.69.69,0,0,0,.23-.6,1.36,1.36,0,0,0-.13-.66,1,1,0,0,0-.36-.38,1.41,1.41,0,0,0-.52-.18,4.29,4.29,0,0,0-.64,0,1.94,1.94,0,0,0-1.19.32,1.45,1.45,0,0,0-.5,1.08Zm5.9,1.89a1.14,1.14,0,0,1-.4.22,4.14,4.14,0,0,1-.52.13l-.58.09-.61.09a4.67,4.67,0,0,0-.57.14,1.69,1.69,0,0,0-.49.24,1.14,1.14,0,0,0-.33.39,1.24,1.24,0,0,0-.13.59,1.2,1.2,0,0,0,.13.58,1,1,0,0,0,.34.37,1.44,1.44,0,0,0,.5.19,3.23,3.23,0,0,0,.59.05,2.26,2.26,0,0,0,1.17-.25,1.67,1.67,0,0,0,.61-.6,1.93,1.93,0,0,0,.24-.71,5,5,0,0,0,0-.58Z"/><path class="cls-6" d="M209.61,105.59v12.85h-2.56V105.59Z"/><path class="cls-5" d="M36.85,159.39l6,9.58h0v-9.58h2.94v14.28H42.65l-5.94-9.56h0v9.56H33.73V159.39Z"/><path class="cls-5" d="M55.67,159.39,61,173.67H57.75l-1.08-3.18H51.33l-1.12,3.18H47l5.4-14.28Zm.18,8.76L54,162.91h0l-1.86,5.24Z"/><path class="cls-5" d="M59.29,162v-2.64H71V162H66.71v11.64H63.57V162Z"/><path class="cls-5" d="M83.13,172.58A6.6,6.6,0,0,1,78.65,174a6.57,6.57,0,0,1-4.49-1.4,5.46,5.46,0,0,1-1.59-4.32v-8.88h3.14v8.88a6.44,6.44,0,0,0,.1,1.14,2.22,2.22,0,0,0,1.31,1.69,3.62,3.62,0,0,0,1.53.27,2.94,2.94,0,0,0,2.32-.75,3.58,3.58,0,0,0,.64-2.35v-8.88h3.14v8.88A5.41,5.41,0,0,1,83.13,172.58Z"/><path class="cls-5" d="M95.15,159.39a4.6,4.6,0,0,1,1.73.31,4,4,0,0,1,1.32.85A3.69,3.69,0,0,1,99,161.8a4,4,0,0,1,.29,1.53,4.29,4.29,0,0,1-.53,2.18,3.33,3.33,0,0,1-1.73,1.4v0a2.42,2.42,0,0,1,1,.49,2.71,2.71,0,0,1,.62.78,3.63,3.63,0,0,1,.35,1,8.68,8.68,0,0,1,.15,1.08c0,.23,0,.49,0,.8s0,.62.07.94a6.22,6.22,0,0,0,.16.91,2.09,2.09,0,0,0,.33.73H96.61a5.51,5.51,0,0,1-.32-1.62q-.06-.94-.18-1.8a2.84,2.84,0,0,0-.68-1.64,2.34,2.34,0,0,0-1.7-.52H90.59v5.58H87.45V159.39ZM94,165.85a2.38,2.38,0,0,0,1.62-.48,2,2,0,0,0,.54-1.56,1.9,1.9,0,0,0-.54-1.51,2.41,2.41,0,0,0-1.62-.47H90.59v4Z"/><path class="cls-5" d="M109,159.39l5.34,14.28h-3.26L110,170.49h-5.34l-1.12,3.18h-3.16l5.4-14.28Zm.18,8.76-1.8-5.24h0l-1.86,5.24Z"/><path class="cls-5" d="M118.73,159.39V171h7v2.64h-10.1V159.39Z"/><path class="cls-5" d="M135.41,170.15a2.26,2.26,0,0,0,.69.81,3,3,0,0,0,1,.46,4.74,4.74,0,0,0,1.2.15,6.23,6.23,0,0,0,.9-.07,3.16,3.16,0,0,0,.9-.27,2,2,0,0,0,.7-.55,1.38,1.38,0,0,0,.28-.89,1.25,1.25,0,0,0-.37-.94,2.92,2.92,0,0,0-1-.6,9.65,9.65,0,0,0-1.36-.42q-.76-.18-1.54-.4a13.53,13.53,0,0,1-1.56-.49,5.37,5.37,0,0,1-1.36-.75,3.55,3.55,0,0,1-1-1.15,3.49,3.49,0,0,1-.37-1.67,3.73,3.73,0,0,1,.47-1.91,4.24,4.24,0,0,1,1.23-1.35,5.37,5.37,0,0,1,1.72-.8,7.32,7.32,0,0,1,1.92-.26,9.09,9.09,0,0,1,2.15.25,5.37,5.37,0,0,1,1.83.81,4.11,4.11,0,0,1,1.27,1.43,4.38,4.38,0,0,1,.47,2.11h-3a2.54,2.54,0,0,0-.27-1.06,1.78,1.78,0,0,0-.61-.66,2.62,2.62,0,0,0-.87-.34,5.38,5.38,0,0,0-1.07-.1,3.72,3.72,0,0,0-.76.08,2,2,0,0,0-.69.28,1.73,1.73,0,0,0-.51.5,1.34,1.34,0,0,0-.2.76,1.29,1.29,0,0,0,.16.68,1.43,1.43,0,0,0,.63.48,8,8,0,0,0,1.3.44l2.17.56c.27.05.64.15,1.11.29a5.31,5.31,0,0,1,1.41.67,4.25,4.25,0,0,1,1.21,1.23,3.5,3.5,0,0,1,.51,2,4.37,4.37,0,0,1-.38,1.82,3.94,3.94,0,0,1-1.13,1.45,5.42,5.42,0,0,1-1.86,1,8.79,8.79,0,0,1-2.57.34,9,9,0,0,1-2.29-.29,5.76,5.76,0,0,1-2-.91,4.5,4.5,0,0,1-1.35-1.58,4.72,4.72,0,0,1-.48-2.28h3A2.61,2.61,0,0,0,135.41,170.15Z"/><path class="cls-5" d="M144.87,162v-2.64h11.7V162h-4.28v11.64h-3.14V162Z"/><path class="cls-5" d="M156.67,159.39h3.52l3.34,5.64,3.32-5.64h3.5l-5.3,8.8v5.48h-3.14v-5.56Z"/><path class="cls-5" d="M174.69,159.39V171h7v2.64h-10.1V159.39Z"/><path class="cls-5" d="M194.09,159.39V162h-7.54v3.06h6.92v2.44h-6.92V171h7.7v2.64H183.41V159.39Z"/><path class="cls-6" d="M109,51.74a3.78,3.78,0,0,1,2.21-2.26,4.72,4.72,0,0,1,1.76-.31,4.79,4.79,0,0,1,1.77.31A3.77,3.77,0,0,1,117,51.74a5.09,5.09,0,0,1,.3,1.8,5,5,0,0,1-.3,1.79,3.9,3.9,0,0,1-.86,1.37,3.76,3.76,0,0,1-1.35.87,4.91,4.91,0,0,1-1.77.3,4.83,4.83,0,0,1-1.76-.3,3.78,3.78,0,0,1-1.34-.87,3.88,3.88,0,0,1-.86-1.37,5,5,0,0,1-.3-1.79A5.08,5.08,0,0,1,109,51.74Zm2.06,2.77a2.59,2.59,0,0,0,.33.85,1.75,1.75,0,0,0,.62.6,1.88,1.88,0,0,0,1,.22,1.92,1.92,0,0,0,1-.22,1.72,1.72,0,0,0,.62-.6,2.55,2.55,0,0,0,.33-.85,4.81,4.81,0,0,0,.1-1,4.93,4.93,0,0,0-.1-1,2.47,2.47,0,0,0-.33-.85,1.81,1.81,0,0,0-.62-.6,1.87,1.87,0,0,0-1-.23,1.83,1.83,0,0,0-1,.23,1.85,1.85,0,0,0-.62.6,2.51,2.51,0,0,0-.33.85,5,5,0,0,0-.1,1A4.88,4.88,0,0,0,111.09,54.51Z"/><path class="cls-6" d="M117.89,50.91V49.39h1.36v-.64a2.48,2.48,0,0,1,.69-1.81,2.79,2.79,0,0,1,2.08-.7l.61,0,.59,0V48a7,7,0,0,0-.83,0,.87.87,0,0,0-.66.22,1.06,1.06,0,0,0-.2.73v.5h1.57v1.52h-1.57v6.75h-2.27V50.91Z"/><path class="cls-5" d="M83,151V136.47H77.35V133a10.7,10.7,0,0,0,2.29-.18,6,6,0,0,0,2-.74,4.87,4.87,0,0,0,1.49-1.39,5,5,0,0,0,.8-2.14h3.62V151Z"/><path class="cls-5" d="M94.1,134.22a9.87,9.87,0,0,1,1.78-3.57,6.37,6.37,0,0,1,2.61-1.92,8.66,8.66,0,0,1,3.15-.58,8.75,8.75,0,0,1,3.18.58,6.49,6.49,0,0,1,2.62,1.92,9.74,9.74,0,0,1,1.79,3.57,19.7,19.7,0,0,1,.66,5.49,20.46,20.46,0,0,1-.66,5.62,9.73,9.73,0,0,1-1.79,3.6,6.49,6.49,0,0,1-2.62,1.92,8.74,8.74,0,0,1-3.18.58,8.65,8.65,0,0,1-3.15-.58,6.37,6.37,0,0,1-2.61-1.92,9.85,9.85,0,0,1-1.78-3.6,20.43,20.43,0,0,1-.66-5.62A19.66,19.66,0,0,1,94.1,134.22Zm4,7.81a12.5,12.5,0,0,0,.4,2.62,5.61,5.61,0,0,0,1.07,2.16,2.58,2.58,0,0,0,2.11.9,2.66,2.66,0,0,0,2.16-.9,5.5,5.5,0,0,0,1.09-2.16,12.44,12.44,0,0,0,.4-2.62q.06-1.36.06-2.32,0-.58,0-1.39a15.56,15.56,0,0,0-.13-1.68,15.74,15.74,0,0,0-.32-1.71,5.24,5.24,0,0,0-.62-1.52,3.43,3.43,0,0,0-1.06-1.09,2.82,2.82,0,0,0-1.57-.42,2.74,2.74,0,0,0-1.55.42,3.34,3.34,0,0,0-1,1.09,5.85,5.85,0,0,0-.62,1.52,11.86,11.86,0,0,0-.32,1.71q-.1.86-.11,1.68t0,1.39Q98,140.66,98.05,142Z"/><path class="cls-5" d="M111.89,134.22a9.87,9.87,0,0,1,1.78-3.57,6.37,6.37,0,0,1,2.61-1.92,8.66,8.66,0,0,1,3.15-.58,8.75,8.75,0,0,1,3.18.58,6.49,6.49,0,0,1,2.62,1.92,9.74,9.74,0,0,1,1.79,3.57,19.66,19.66,0,0,1,.66,5.49,20.43,20.43,0,0,1-.66,5.62,9.73,9.73,0,0,1-1.79,3.6,6.49,6.49,0,0,1-2.62,1.92,8.74,8.74,0,0,1-3.18.58,8.65,8.65,0,0,1-3.15-.58,6.37,6.37,0,0,1-2.61-1.92,9.85,9.85,0,0,1-1.78-3.6,20.43,20.43,0,0,1-.66-5.62A19.66,19.66,0,0,1,111.89,134.22Zm4,7.81a12.5,12.5,0,0,0,.4,2.62,5.61,5.61,0,0,0,1.07,2.16,2.58,2.58,0,0,0,2.11.9,2.66,2.66,0,0,0,2.16-.9,5.5,5.5,0,0,0,1.09-2.16,12.44,12.44,0,0,0,.4-2.62q.06-1.36.06-2.32,0-.58,0-1.39a15.56,15.56,0,0,0-.13-1.68,15.74,15.74,0,0,0-.32-1.71,5.24,5.24,0,0,0-.62-1.52,3.43,3.43,0,0,0-1.06-1.09,2.82,2.82,0,0,0-1.57-.42,2.74,2.74,0,0,0-1.55.42,3.34,3.34,0,0,0-1,1.09,5.85,5.85,0,0,0-.62,1.52,11.86,11.86,0,0,0-.32,1.71q-.1.86-.11,1.68t0,1.39Q115.78,140.66,115.84,142Z"/><path class="cls-5" d="M131.07,132a5.74,5.74,0,0,1,1-2,4.72,4.72,0,0,1,1.7-1.36,5.53,5.53,0,0,1,2.43-.5,5.42,5.42,0,0,1,2.5.51,4.45,4.45,0,0,1,1.62,1.39,5.56,5.56,0,0,1,.88,2.06,11.77,11.77,0,0,1,.26,2.5,8.63,8.63,0,0,1-.32,2.42,5.28,5.28,0,0,1-1,1.9,4.42,4.42,0,0,1-1.68,1.25,6,6,0,0,1-2.43.45,5.91,5.91,0,0,1-2.48-.46,4.25,4.25,0,0,1-1.63-1.28,5.13,5.13,0,0,1-.9-2,10.48,10.48,0,0,1-.27-2.45A9.19,9.19,0,0,1,131.07,132Zm3,3.68a4.32,4.32,0,0,0,.22,1.2,2.26,2.26,0,0,0,.61.94,2,2,0,0,0,2.35,0,2.32,2.32,0,0,0,.64-.94,4.34,4.34,0,0,0,.26-1.18q0-.62,0-1.14t0-1.17a6.11,6.11,0,0,0-.24-1.33,2.83,2.83,0,0,0-.59-1.09,1.41,1.41,0,0,0-1.1-.45,1.66,1.66,0,0,0-1.2.42,2.68,2.68,0,0,0-.66,1,4.71,4.71,0,0,0-.27,1.31q0,.7,0,1.25T134.05,135.7Zm18.4-7.81-13.18,23.78h-2.78l13.25-23.78Zm-4.86,14.82a5.46,5.46,0,0,1,1-2,4.72,4.72,0,0,1,1.7-1.31,5.68,5.68,0,0,1,2.43-.48,5.56,5.56,0,0,1,2.5.5,4.44,4.44,0,0,1,1.62,1.34,5.25,5.25,0,0,1,.88,2,11.33,11.33,0,0,1,.26,2.46,8.84,8.84,0,0,1-.32,2.43,5.6,5.6,0,0,1-1,2A4.42,4.42,0,0,1,155,151a5.86,5.86,0,0,1-2.43.46,5.75,5.75,0,0,1-2.48-.48,4.26,4.26,0,0,1-1.63-1.33,5.44,5.44,0,0,1-.9-2,10.74,10.74,0,0,1-.27-2.46A8.81,8.81,0,0,1,147.59,142.71Zm3,3.65a4.79,4.79,0,0,0,.22,1.26,2.48,2.48,0,0,0,.61,1,1.87,1.87,0,0,0,2.35,0,2.55,2.55,0,0,0,.64-1,4.81,4.81,0,0,0,.26-1.25q0-.66,0-1.17t0-1.14a5.3,5.3,0,0,0-.24-1.25,2.72,2.72,0,0,0-.59-1,1.43,1.43,0,0,0-1.1-.43,1.74,1.74,0,0,0-1.2.38,2.44,2.44,0,0,0-.66,1,4.27,4.27,0,0,0-.27,1.25q0,.67,0,1.22T150.56,146.36Z"/></g></svg>