<svg xmlns="http://www.w3.org/2000/svg" viewBox="0 0 227.33 192.67"><defs><style>.cls-1{fill:none;}.cls-1,.cls-2{stroke:#11c1f3;}.cls-1,.cls-2,.cls-3{stroke-miterlimit:10;}.cls-2,.cls-3{fill:#fff;stroke-width:6px;}.cls-3{stroke:#03596d;}.cls-4{font-size:20px;}.cls-4,.cls-5,.cls-8,.cls-9{fill:#03596d;font-family:HelveticaNeue-Bold, Helvetica Neue;font-weight:700;}.cls-5{font-size:15px;}.cls-6{letter-spacing:-0.02em;}.cls-7{letter-spacing:-0.09em;}.cls-8{font-size:16px;}.cls-9{font-size:32px;}</style></defs><title>trueestArtboard 1</title><g id="guides"><line class="cls-1" x1="8.02" y1="55.33" x2="219.32" y2="55.33"/><line class="cls-1" x1="218.05" y1="137.33" x2="9.28" y2="137.33"/></g><g id="Layer_1" data-name="Layer 1"><path class="cls-2" d="M219,97v76c0,6.6-2.84,12-6.32,12h-198c-3.47,0-6.32-5.4-6.32-12V97"/><path class="cls-2" d="M219,97V21c0-6.6-2.84-12-6.32-12h-198c-3.47,0-6.32,5.4-6.32,12V97Z"/><path class="cls-3" d="M212.65,187h-198c-4.66,0-8.32-6.15-8.32-14V97h4v76c0,6.1,2.56,10,4.32,10h198c1.76,0,4.32-3.9,4.32-10V97h4v76C221,180.85,217.31,187,212.65,187Z"/><path class="cls-2" d="M219,97v76c0,6.6-2.84,12-6.32,12h-198c-3.47,0-6.32-5.4-6.32-12V97"/><path class="cls-3" d="M6.37,99V21c0-7.85,3.65-14,8.32-14h198c4.66,0,8.32,6.15,8.32,14V99Z"/><path class="cls-2" d="M219,97V21c0-6.6-2.84-12-6.32-12h-198c-3.47,0-6.32,5.4-6.32,12V97Z"/><path class="cls-2" d="M219,100v73c0,6.6-2.84,12-6.32,12h-198c-3.47,0-6.32-5.4-6.32-12V100"/></g><g id="great_sense" data-name="great sense"><text class="cls-4" transform="translate(48.09 37.67)"><tspan xml:space="preserve"> CHALK FULL</tspan></text><text class="cls-4" transform="translate(29.04 82.33)">HUSTLE &amp; SPIRIT</text><text class="cls-5" transform="translate(32.88 117.67)">simple . f<tspan class="cls-6" x="64.66" y="0">r</tspan><tspan x="70.23" y="0">esh . original</tspan></text><text class="cls-4" transform="translate(32.35 173.67)">N<tspan class="cls-7" x="14.82" y="0">A</tspan><tspan x="26.68" y="0">TURAL STYLE</tspan></text><text class="cls-8" transform="translate(108.11 57.67)">of</text><text class="cls-9" transform="translate(74.98 151)">100%</text></g></svg>