<svg xmlns="http://www.w3.org/2000/svg" viewBox="0 0 123.5 103.5"><defs><style>.cls-1{fill:none;stroke:#11c1f3;stroke-width:0.5px;}.cls-1,.cls-2{stroke-miterlimit:10;}.cls-2{fill:#05596d;stroke:#ff0;stroke-width:2px;}.cls-3{fill:#ff0;}</style></defs><title>2_2_18Artboard 1</title><g id="guides"><line class="cls-1" x1="114.69" y1="71.67" x2="10.31" y2="71.67"/><path class="cls-2" d="M120.41,53V93.15c0,3.63-1.56,6.6-3.47,6.6H8.06c-1.91,0-3.47-3-3.47-6.6V53"/><path class="cls-2" d="M120.41,53V12.85c0-3.63-1.56-6.6-3.47-6.6H8.06c-1.91,0-3.47,3-3.47,6.6V53"/></g><g id="great_sense" data-name="great sense"><path class="cls-3" d="M37.76,16.6a1.58,1.58,0,0,0-.35-.39,1.62,1.62,0,0,0-.47-.27,1.64,1.64,0,0,0-.56-.09,1.83,1.83,0,0,0-.9.21,1.7,1.7,0,0,0-.6.55,2.42,2.42,0,0,0-.33.79,3.92,3.92,0,0,0-.1.91,3.64,3.64,0,0,0,.1.88,2.37,2.37,0,0,0,.33.77,1.71,1.71,0,0,0,.6.54,1.83,1.83,0,0,0,.9.21,1.45,1.45,0,0,0,1.13-.44,2,2,0,0,0,.5-1.16h1.52a3.63,3.63,0,0,1-.31,1.21,2.9,2.9,0,0,1-.66.92,2.8,2.8,0,0,1-1,.58,3.52,3.52,0,0,1-1.21.2,3.66,3.66,0,0,1-1.47-.28,3.16,3.16,0,0,1-1.1-.78,3.47,3.47,0,0,1-.69-1.18,4.31,4.31,0,0,1-.24-1.46,4.46,4.46,0,0,1,.24-1.48,3.57,3.57,0,0,1,.69-1.2,3.15,3.15,0,0,1,1.1-.8,3.83,3.83,0,0,1,2.59-.12,3,3,0,0,1,.94.49,2.68,2.68,0,0,1,.68.8,2.88,2.88,0,0,1,.34,1.1H37.94A1.28,1.28,0,0,0,37.76,16.6Z"/><path class="cls-3" d="M42.16,14.69v2.74h2.89V14.69h1.57v7.14H45.05V18.75H42.16v3.08H40.59V14.69Z"/><path class="cls-3" d="M51.56,14.69l2.67,7.14H52.6l-.54-1.59H49.39l-.56,1.59H47.25l2.7-7.14Zm.09,4.38-.9-2.62h0l-.93,2.62Z"/><path class="cls-3" d="M56.42,14.69v5.82H59.9v1.32H54.85V14.69Z"/><path class="cls-3" d="M62.35,14.69v3l2.79-3h2l-2.79,2.82,3.06,4.32h-2l-2.15-3.21-.9.91v2.3H60.78V14.69Z"/><path class="cls-3" d="M75.8,14.69V16H72.35v1.65h3v1.22h-3v2.95H70.78V14.69Z"/><path class="cls-3" d="M82,21.29a3.93,3.93,0,0,1-4.48,0,2.73,2.73,0,0,1-.8-2.16V14.69h1.57v4.44a3.25,3.25,0,0,0,0,.57,1.11,1.11,0,0,0,.66.84,1.81,1.81,0,0,0,.76.14,1.47,1.47,0,0,0,1.16-.37,1.79,1.79,0,0,0,.32-1.18V14.69h1.57v4.44A2.71,2.71,0,0,1,82,21.29Z"/><path class="cls-3" d="M85.69,14.69v5.82h3.48v1.32H84.12V14.69Z"/><path class="cls-3" d="M91.62,14.69v5.82H95.1v1.32H90V14.69Z"/><path class="cls-3" d="M22.45,39v2.74h2.89V39h1.57v7.14H25.34V43.09H22.45v3.08H20.88V39Z"/><path class="cls-3" d="M33.54,45.62a3.3,3.3,0,0,1-2.24.7,3.29,3.29,0,0,1-2.24-.7,2.73,2.73,0,0,1-.8-2.16V39h1.57v4.44a3.23,3.23,0,0,0,.05.57,1.11,1.11,0,0,0,.66.84,1.81,1.81,0,0,0,.76.14,1.47,1.47,0,0,0,1.16-.37,1.79,1.79,0,0,0,.32-1.18V39h1.57v4.44A2.71,2.71,0,0,1,33.54,45.62Z"/><path class="cls-3" d="M36.9,44.41a1.13,1.13,0,0,0,.35.41,1.49,1.49,0,0,0,.5.23,2.38,2.38,0,0,0,.6.07,3.11,3.11,0,0,0,.45,0,1.57,1.57,0,0,0,.45-.14,1,1,0,0,0,.35-.28.69.69,0,0,0,.14-.44.63.63,0,0,0-.19-.47,1.47,1.47,0,0,0-.48-.3,4.8,4.8,0,0,0-.68-.21l-.77-.2a6.76,6.76,0,0,1-.78-.24,2.68,2.68,0,0,1-.68-.37,1.77,1.77,0,0,1-.48-.57,1.74,1.74,0,0,1-.19-.83,1.87,1.87,0,0,1,.24-1,2.13,2.13,0,0,1,.61-.68,2.68,2.68,0,0,1,.86-.4,3.66,3.66,0,0,1,1-.13,4.55,4.55,0,0,1,1.08.13,2.69,2.69,0,0,1,.91.41,2.05,2.05,0,0,1,.64.72A2.19,2.19,0,0,1,41,41.16H39.5a1.26,1.26,0,0,0-.14-.53.89.89,0,0,0-.3-.33,1.3,1.3,0,0,0-.44-.17,2.69,2.69,0,0,0-.53-.05,1.85,1.85,0,0,0-.38,0,1,1,0,0,0-.34.14.86.86,0,0,0-.25.25.67.67,0,0,0-.1.38.64.64,0,0,0,.08.34.71.71,0,0,0,.31.24,4,4,0,0,0,.65.22l1.08.28.56.15a2.66,2.66,0,0,1,.7.33,2.13,2.13,0,0,1,.61.61,1.75,1.75,0,0,1,.25,1,2.18,2.18,0,0,1-.19.91,2,2,0,0,1-.56.72,2.71,2.71,0,0,1-.93.48,4.4,4.4,0,0,1-1.28.17,4.51,4.51,0,0,1-1.15-.15,2.88,2.88,0,0,1-1-.45,2.24,2.24,0,0,1-.68-.79,2.36,2.36,0,0,1-.24-1.14h1.52A1.31,1.31,0,0,0,36.9,44.41Z"/><path class="cls-3" d="M41.63,40.35V39h5.85v1.32H45.34v5.82H43.77V40.35Z"/><path class="cls-3" d="M49.87,39v5.82h3.48v1.32H48.3V39Z"/><path class="cls-3" d="M59.57,39v1.32H55.8v1.53h3.46V43.1H55.8v1.75h3.85v1.32H54.23V39Z"/><path class="cls-3" d="M66.52,46.09a2.73,2.73,0,0,1-1.1.21,2.88,2.88,0,0,1-.9-.14,2.06,2.06,0,0,1-.73-.42,2,2,0,0,1-.49-.67,2.16,2.16,0,0,1-.18-.91,1.8,1.8,0,0,1,.13-.7,2,2,0,0,1,.35-.57,2.79,2.79,0,0,1,.52-.46,4.52,4.52,0,0,1,.6-.35,4.62,4.62,0,0,1-.48-.7,1.66,1.66,0,0,1-.19-.82,1.44,1.44,0,0,1,.15-.67,1.64,1.64,0,0,1,.42-.51,1.88,1.88,0,0,1,.6-.33,2.13,2.13,0,0,1,.69-.11,2.58,2.58,0,0,1,.77.11,1.84,1.84,0,0,1,.62.33,1.55,1.55,0,0,1,.42.53,1.68,1.68,0,0,1,.15.74,1.58,1.58,0,0,1-.36,1.06,3.09,3.09,0,0,1-.91.72l.92,1.13a1.92,1.92,0,0,0,.17-.41,3.25,3.25,0,0,0,.09-.44H69a3.73,3.73,0,0,1-.22.93,3.11,3.11,0,0,1-.47.83l1.45,1.69H68l-.58-.71A3,3,0,0,1,66.52,46.09ZM65.1,43.21a1.52,1.52,0,0,0-.32.26,1.29,1.29,0,0,0-.23.33.93.93,0,0,0-.08.4.83.83,0,0,0,.08.36,1,1,0,0,0,.23.3,1.11,1.11,0,0,0,.33.2,1,1,0,0,0,.38.07,1.24,1.24,0,0,0,.67-.18,2.41,2.41,0,0,0,.54-.45L65.46,43A2.75,2.75,0,0,0,65.1,43.21Zm1.32-3.11a.62.62,0,0,0-.46-.2.64.64,0,0,0-.45.18.59.59,0,0,0-.19.46.94.94,0,0,0,.18.58l.38.49a2.83,2.83,0,0,0,.51-.41.83.83,0,0,0,.22-.61A.66.66,0,0,0,66.42,40.1Z"/><path class="cls-3" d="M74.31,44.41a1.13,1.13,0,0,0,.35.41,1.49,1.49,0,0,0,.5.23,2.38,2.38,0,0,0,.6.07,3.11,3.11,0,0,0,.45,0,1.57,1.57,0,0,0,.45-.14,1,1,0,0,0,.35-.28.69.69,0,0,0,.14-.44.63.63,0,0,0-.19-.47,1.46,1.46,0,0,0-.48-.3,4.79,4.79,0,0,0-.68-.21L75,43a6.77,6.77,0,0,1-.78-.24,2.68,2.68,0,0,1-.68-.37,1.77,1.77,0,0,1-.48-.57A1.74,1.74,0,0,1,72.9,41a1.87,1.87,0,0,1,.24-1,2.12,2.12,0,0,1,.61-.68,2.68,2.68,0,0,1,.86-.4,3.66,3.66,0,0,1,1-.13,4.55,4.55,0,0,1,1.08.13,2.69,2.69,0,0,1,.92.41,2.05,2.05,0,0,1,.63.72,2.19,2.19,0,0,1,.24,1.05H76.92a1.27,1.27,0,0,0-.14-.53.89.89,0,0,0-.3-.33,1.3,1.3,0,0,0-.44-.17,2.69,2.69,0,0,0-.54-.05,1.84,1.84,0,0,0-.38,0,1,1,0,0,0-.35.14.86.86,0,0,0-.25.25.67.67,0,0,0-.1.38.64.64,0,0,0,.08.34.71.71,0,0,0,.31.24,4,4,0,0,0,.65.22l1.08.28.56.15a2.65,2.65,0,0,1,.71.33,2.13,2.13,0,0,1,.6.61,1.75,1.75,0,0,1,.25,1,2.18,2.18,0,0,1-.19.91,2,2,0,0,1-.56.72,2.71,2.71,0,0,1-.93.48,4.4,4.4,0,0,1-1.28.17,4.51,4.51,0,0,1-1.15-.15,2.88,2.88,0,0,1-1-.45,2.24,2.24,0,0,1-.68-.79,2.36,2.36,0,0,1-.24-1.14h1.52A1.31,1.31,0,0,0,74.31,44.41Z"/><path class="cls-3" d="M82.82,39a3,3,0,0,1,1.14.19,2.13,2.13,0,0,1,.77.52,2,2,0,0,1,.43.73,2.73,2.73,0,0,1,0,1.7,2,2,0,0,1-.43.73,2.13,2.13,0,0,1-.77.52,3,3,0,0,1-1.14.19H81.17v2.56H79.6V39Zm-.43,3.36a3.27,3.27,0,0,0,.52,0,1.21,1.21,0,0,0,.44-.16.85.85,0,0,0,.31-.32,1.38,1.38,0,0,0,0-1.1.85.85,0,0,0-.31-.33,1.22,1.22,0,0,0-.44-.15,3.3,3.3,0,0,0-.52,0H81.17v2.14Z"/><path class="cls-3" d="M87.84,39v7.14H86.27V39Z"/><path class="cls-3" d="M93.07,39a2.3,2.3,0,0,1,.87.15,2,2,0,0,1,.66.43,1.85,1.85,0,0,1,.42.63,2,2,0,0,1,.14.77,2.15,2.15,0,0,1-.26,1.09,1.67,1.67,0,0,1-.87.7v0a1.21,1.21,0,0,1,.48.25,1.37,1.37,0,0,1,.31.39,1.83,1.83,0,0,1,.18.5,4.36,4.36,0,0,1,.07.54c0,.11,0,.25,0,.4s0,.31,0,.47a3.08,3.08,0,0,0,.08.46,1,1,0,0,0,.17.36H93.8a2.76,2.76,0,0,1-.16-.81q0-.47-.09-.9a1.42,1.42,0,0,0-.34-.82,1.17,1.17,0,0,0-.85-.26H90.79v2.79H89.22V39Zm-.56,3.23a1.19,1.19,0,0,0,.81-.24,1,1,0,0,0,.27-.78,1,1,0,0,0-.27-.76,1.2,1.2,0,0,0-.81-.23H90.79v2Z"/><path class="cls-3" d="M98,39v7.14H96.44V39Z"/><path class="cls-3" d="M98.83,40.35V39h5.85v1.32h-2.14v5.82H101V40.35Z"/><path class="cls-3" d="M15.61,57.07a.74.74,0,0,0,.22.24.94.94,0,0,0,.31.14,1.46,1.46,0,0,0,.36,0,1.36,1.36,0,0,0,.28,0,1,1,0,0,0,.27-.1.61.61,0,0,0,.2-.18.47.47,0,0,0,.08-.28q0-.29-.38-.43a7.61,7.61,0,0,0-1.07-.29L15.35,56a1.87,1.87,0,0,1-.47-.23,1.09,1.09,0,0,1-.33-.35,1,1,0,0,1-.13-.52,1.4,1.4,0,0,1,.18-.74,1.29,1.29,0,0,1,.46-.45,2,2,0,0,1,.65-.23,4,4,0,0,1,.74-.07,3.7,3.7,0,0,1,.73.07,2,2,0,0,1,.63.24,1.46,1.46,0,0,1,.46.45,1.53,1.53,0,0,1,.22.72H17.28a.56.56,0,0,0-.28-.5,1.27,1.27,0,0,0-.59-.13h-.23a.78.78,0,0,0-.23.06.47.47,0,0,0-.18.13.34.34,0,0,0-.07.23.35.35,0,0,0,.13.28,1,1,0,0,0,.33.18l.46.12.53.12a5.52,5.52,0,0,1,.54.15,1.79,1.79,0,0,1,.47.24,1.15,1.15,0,0,1,.33.37,1.08,1.08,0,0,1,.13.54A1.41,1.41,0,0,1,18,58a2,2,0,0,1-.68.27,4,4,0,0,1-.78.08,3.86,3.86,0,0,1-.79-.08A2.09,2.09,0,0,1,15,58a1.54,1.54,0,0,1-.49-.5,1.56,1.56,0,0,1-.21-.78h1.21A.7.7,0,0,0,15.61,57.07Z"/><path class="cls-3" d="M19.4,52.85V51.8h1.28v1.05Zm1.28.72v4.65H19.4V53.57Z"/><path class="cls-3" d="M22.93,53.57v.63h0a1.82,1.82,0,0,1,.61-.56,1.64,1.64,0,0,1,.81-.2,1.88,1.88,0,0,1,.81.17,1.13,1.13,0,0,1,.55.6,2,2,0,0,1,.56-.54,1.5,1.5,0,0,1,.84-.23,2.48,2.48,0,0,1,.68.09,1.38,1.38,0,0,1,.54.29,1.32,1.32,0,0,1,.35.52,2.1,2.1,0,0,1,.13.77v3.11H27.56V55.59q0-.23,0-.44a.94.94,0,0,0-.1-.36.6.6,0,0,0-.24-.24.86.86,0,0,0-.43-.09.82.82,0,0,0-.44.1.75.75,0,0,0-.26.27,1.08,1.08,0,0,0-.13.38,2.89,2.89,0,0,0,0,.43v2.59H24.64V55.61q0-.21,0-.41a1.14,1.14,0,0,0-.08-.37.57.57,0,0,0-.23-.27.85.85,0,0,0-.46-.1,1,1,0,0,0-.24,0,.79.79,0,0,0-.29.15.89.89,0,0,0-.24.32,1.31,1.31,0,0,0-.1.55v2.7H21.73V53.57Z"/><path class="cls-3" d="M31.06,53.57v.59h0a1.41,1.41,0,0,1,.59-.55,1.83,1.83,0,0,1,.79-.17,2,2,0,0,1,.95.21,2,2,0,0,1,.66.55,2.33,2.33,0,0,1,.39.8,3.55,3.55,0,0,1,.13.95,3.21,3.21,0,0,1-.13.9,2.29,2.29,0,0,1-.38.76,1.9,1.9,0,0,1-.64.53,1.92,1.92,0,0,1-.9.2,1.81,1.81,0,0,1-.8-.18,1.51,1.51,0,0,1-.6-.52h0v2.2H29.84V53.57Zm1.66,3.69a1,1,0,0,0,.34-.33,1.36,1.36,0,0,0,.18-.47,2.79,2.79,0,0,0,.05-.55,2.59,2.59,0,0,0-.06-.55,1.47,1.47,0,0,0-.19-.48,1.08,1.08,0,0,0-.35-.34,1,1,0,0,0-.52-.13,1,1,0,0,0-.53.13,1,1,0,0,0-.34.34,1.4,1.4,0,0,0-.18.48,2.84,2.84,0,0,0-.05.56,2.59,2.59,0,0,0,.06.55,1.42,1.42,0,0,0,.19.47,1.09,1.09,0,0,0,1.4.33Z"/><path class="cls-3" d="M36.66,51.8v6.43H35.38V51.8Z"/><path class="cls-3" d="M39,57.11a1.31,1.31,0,0,0,1.49.09.8.8,0,0,0,.34-.41H42a2.14,2.14,0,0,1-.83,1.2,2.44,2.44,0,0,1-1.35.36,2.65,2.65,0,0,1-1-.18,2.05,2.05,0,0,1-.75-.5,2.25,2.25,0,0,1-.47-.77,2.83,2.83,0,0,1-.17-1,2.71,2.71,0,0,1,.17-1,2.25,2.25,0,0,1,1.24-1.3,2.41,2.41,0,0,1,1-.19,2.21,2.21,0,0,1,1,.23,2.07,2.07,0,0,1,.72.62,2.54,2.54,0,0,1,.41.88,3.29,3.29,0,0,1,.09,1H38.72A1.29,1.29,0,0,0,39,57.11Zm1.44-2.45a.9.9,0,0,0-.7-.25,1.11,1.11,0,0,0-.51.1,1,1,0,0,0-.32.26.94.94,0,0,0-.17.32,1.46,1.46,0,0,0-.06.31H40.8A1.48,1.48,0,0,0,40.48,54.66Z"/><path class="cls-3" d="M46.8,56.84v1.39H45.39V56.84Z"/><path class="cls-3" d="M49.85,54.42v-.85h.76v-.36a1.39,1.39,0,0,1,.39-1,1.57,1.57,0,0,1,1.17-.4h.34l.33,0v1l-.47,0a.49.49,0,0,0-.37.12.6.6,0,0,0-.11.41v.28h.88v.85h-.88v3.8H50.61v-3.8Z"/><path class="cls-3" d="M54.55,53.57v.86h0a1.56,1.56,0,0,1,.24-.4,1.59,1.59,0,0,1,.35-.31,1.73,1.73,0,0,1,.42-.2,1.53,1.53,0,0,1,.47-.07,1,1,0,0,1,.28,0v1.19l-.22,0h-.24a1.36,1.36,0,0,0-.59.12,1,1,0,0,0-.39.32,1.28,1.28,0,0,0-.21.47,2.58,2.58,0,0,0-.06.59v2.1H53.33V53.57Z"/><path class="cls-3" d="M58,57.11a1.31,1.31,0,0,0,1.49.09.8.8,0,0,0,.34-.41H61a2.14,2.14,0,0,1-.83,1.2,2.44,2.44,0,0,1-1.35.36,2.65,2.65,0,0,1-1-.18,2.05,2.05,0,0,1-.75-.5,2.25,2.25,0,0,1-.47-.77,2.83,2.83,0,0,1-.17-1,2.71,2.71,0,0,1,.17-1,2.25,2.25,0,0,1,1.24-1.3,2.41,2.41,0,0,1,1-.19,2.21,2.21,0,0,1,1,.23,2.07,2.07,0,0,1,.72.62,2.54,2.54,0,0,1,.41.88,3.29,3.29,0,0,1,.09,1H57.72A1.29,1.29,0,0,0,58,57.11Zm1.44-2.45a.9.9,0,0,0-.7-.25,1.11,1.11,0,0,0-.51.1,1,1,0,0,0-.32.26.94.94,0,0,0-.17.32,1.46,1.46,0,0,0-.06.31H59.8A1.48,1.48,0,0,0,59.48,54.66Z"/><path class="cls-3" d="M62.91,57.07a.74.74,0,0,0,.22.24.94.94,0,0,0,.31.14,1.46,1.46,0,0,0,.37,0,1.36,1.36,0,0,0,.28,0,1,1,0,0,0,.27-.1.61.61,0,0,0,.2-.18.47.47,0,0,0,.08-.28q0-.29-.38-.43a7.6,7.6,0,0,0-1.07-.29L62.65,56a1.87,1.87,0,0,1-.47-.23,1.09,1.09,0,0,1-.33-.35,1,1,0,0,1-.13-.52,1.4,1.4,0,0,1,.18-.74,1.29,1.29,0,0,1,.46-.45,2,2,0,0,1,.65-.23,4,4,0,0,1,.74-.07,3.71,3.71,0,0,1,.73.07,2,2,0,0,1,.63.24,1.46,1.46,0,0,1,.46.45,1.53,1.53,0,0,1,.22.72H64.58a.56.56,0,0,0-.28-.5,1.27,1.27,0,0,0-.59-.13h-.23a.78.78,0,0,0-.23.06.47.47,0,0,0-.18.13.34.34,0,0,0-.07.23.35.35,0,0,0,.13.28,1,1,0,0,0,.33.18l.46.12.53.12a5.52,5.52,0,0,1,.54.15,1.8,1.8,0,0,1,.47.24,1.15,1.15,0,0,1,.33.37,1.08,1.08,0,0,1,.13.54A1.41,1.41,0,0,1,65.26,58a2,2,0,0,1-.68.27,4,4,0,0,1-.78.08,3.87,3.87,0,0,1-.79-.08,2.09,2.09,0,0,1-.69-.27,1.54,1.54,0,0,1-.49-.5,1.56,1.56,0,0,1-.21-.78h1.21A.7.7,0,0,0,62.91,57.07Z"/><path class="cls-3" d="M67.95,51.8v2.42h0a1.48,1.48,0,0,1,.62-.59,1.68,1.68,0,0,1,.74-.18,2.17,2.17,0,0,1,.84.14,1.25,1.25,0,0,1,.52.39,1.5,1.5,0,0,1,.27.6,3.75,3.75,0,0,1,.08.79v2.86H69.76V55.59a1.63,1.63,0,0,0-.18-.86.7.7,0,0,0-.64-.28.89.89,0,0,0-.76.31,1.72,1.72,0,0,0-.23,1v2.44H66.67V51.8Z"/><path class="cls-3" d="M76,56.84v1.39H74.56V56.84Z"/><path class="cls-3" d="M79.54,54.89a2.13,2.13,0,0,1,1.24-1.27,2.65,2.65,0,0,1,1-.18,2.69,2.69,0,0,1,1,.18A2.12,2.12,0,0,1,84,54.89a2.87,2.87,0,0,1,.17,1,2.83,2.83,0,0,1-.17,1,2.18,2.18,0,0,1-.49.77,2.11,2.11,0,0,1-.76.49,2.76,2.76,0,0,1-1,.17,2.73,2.73,0,0,1-1-.17,2.13,2.13,0,0,1-.76-.49,2.18,2.18,0,0,1-.49-.77,2.81,2.81,0,0,1-.17-1A2.85,2.85,0,0,1,79.54,54.89Zm1.16,1.56a1.46,1.46,0,0,0,.18.48,1,1,0,0,0,.35.34,1.06,1.06,0,0,0,.54.13,1.08,1.08,0,0,0,.54-.13,1,1,0,0,0,.35-.34,1.44,1.44,0,0,0,.18-.48,2.7,2.7,0,0,0,.05-.54,2.77,2.77,0,0,0-.05-.55,1.39,1.39,0,0,0-.18-.48,1,1,0,0,0-.35-.34,1.05,1.05,0,0,0-.54-.13,1,1,0,0,0-.89.47,1.42,1.42,0,0,0-.18.48,2.82,2.82,0,0,0-.05.55A2.74,2.74,0,0,0,80.7,56.45Z"/><path class="cls-3" d="M86.23,53.57v.86h0a1.56,1.56,0,0,1,.24-.4,1.59,1.59,0,0,1,.35-.31,1.73,1.73,0,0,1,.42-.2,1.53,1.53,0,0,1,.47-.07,1,1,0,0,1,.28,0v1.19l-.22,0h-.24a1.36,1.36,0,0,0-.59.12,1,1,0,0,0-.39.32,1.27,1.27,0,0,0-.21.47,2.56,2.56,0,0,0-.06.59v2.1H85V53.57Z"/><path class="cls-3" d="M88.55,52.85V51.8h1.28v1.05Zm1.28.72v4.65H88.55V53.57Z"/><path class="cls-3" d="M95.23,58.56a1.59,1.59,0,0,1-.33.67,2,2,0,0,1-.73.53A3.14,3.14,0,0,1,92.9,60a3,3,0,0,1-.7-.09,2.22,2.22,0,0,1-.65-.27,1.59,1.59,0,0,1-.49-.46,1.34,1.34,0,0,1-.22-.68h1.27a.73.73,0,0,0,.35.5,1.26,1.26,0,0,0,.6.14.93.93,0,0,0,.79-.32,1.27,1.27,0,0,0,.24-.82v-.61h0a1.27,1.27,0,0,1-.59.54,1.91,1.91,0,0,1-.81.18,2,2,0,0,1-.9-.18,1.71,1.71,0,0,1-.62-.5,2.11,2.11,0,0,1-.36-.75,3.54,3.54,0,0,1-.11-.9,2.91,2.91,0,0,1,.13-.87,2.26,2.26,0,0,1,.38-.74,1.85,1.85,0,0,1,.63-.51,1.88,1.88,0,0,1,.86-.19,1.8,1.8,0,0,1,.81.17,1.4,1.4,0,0,1,.58.58h0v-.62h1.21v4.36A3.15,3.15,0,0,1,95.23,58.56ZM93.48,57a1,1,0,0,0,.34-.29,1.27,1.27,0,0,0,.2-.41,1.7,1.7,0,0,0,.07-.48,2.61,2.61,0,0,0-.05-.54,1.36,1.36,0,0,0-.18-.45.93.93,0,0,0-.33-.31,1.05,1.05,0,0,0-.52-.12.94.94,0,0,0-.46.11,1,1,0,0,0-.32.29,1.23,1.23,0,0,0-.19.42,2.11,2.11,0,0,0-.06.5,2.56,2.56,0,0,0,0,.5,1.35,1.35,0,0,0,.17.45,1,1,0,0,0,.32.32.9.9,0,0,0,.5.13A1,1,0,0,0,93.48,57Z"/><path class="cls-3" d="M96.37,52.85V51.8h1.28v1.05Zm1.28.72v4.65H96.37V53.57Z"/><path class="cls-3" d="M99.87,53.57v.65h0a1.47,1.47,0,0,1,.63-.59,1.82,1.82,0,0,1,.79-.18,2.17,2.17,0,0,1,.84.14,1.25,1.25,0,0,1,.52.39,1.5,1.5,0,0,1,.27.6,3.75,3.75,0,0,1,.08.79v2.86h-1.28V55.59a1.63,1.63,0,0,0-.18-.86.7.7,0,0,0-.64-.28.89.89,0,0,0-.76.31,1.73,1.73,0,0,0-.23,1v2.44H98.66V53.57Z"/><path class="cls-3" d="M103.94,55a1.49,1.49,0,0,1,.22-.75,1.53,1.53,0,0,1,.5-.48,2.2,2.2,0,0,1,.69-.26,3.92,3.92,0,0,1,.77-.08,5.2,5.2,0,0,1,.71,0,2.18,2.18,0,0,1,.66.19,1.3,1.3,0,0,1,.49.4,1.12,1.12,0,0,1,.19.68v2.42a4.85,4.85,0,0,0,0,.6,1.07,1.07,0,0,0,.13.43H107A1.76,1.76,0,0,1,107,58a1.84,1.84,0,0,1,0-.23,1.66,1.66,0,0,1-.72.44,2.89,2.89,0,0,1-.85.13,2.29,2.29,0,0,1-.62-.08,1.42,1.42,0,0,1-.5-.25,1.17,1.17,0,0,1-.34-.43,1.45,1.45,0,0,1-.12-.62,1.36,1.36,0,0,1,.14-.65,1.17,1.17,0,0,1,.36-.41,1.61,1.61,0,0,1,.5-.23,5.4,5.4,0,0,1,.57-.12l.57-.07a3.44,3.44,0,0,0,.5-.08.86.86,0,0,0,.34-.16.35.35,0,0,0,.12-.3.68.68,0,0,0-.07-.33.5.5,0,0,0-.18-.19.71.71,0,0,0-.26-.09l-.32,0a1,1,0,0,0-.59.16.72.72,0,0,0-.25.54Zm3,.95a.57.57,0,0,1-.2.11l-.26.07-.29,0-.31,0-.28.07a.84.84,0,0,0-.24.12.57.57,0,0,0-.17.19.62.62,0,0,0-.06.3.6.6,0,0,0,.06.29.48.48,0,0,0,.17.18.72.72,0,0,0,.25.09l.3,0a1.13,1.13,0,0,0,.58-.13.84.84,0,0,0,.31-.3,1,1,0,0,0,.12-.36,2.51,2.51,0,0,0,0-.29Z"/><path class="cls-3" d="M110.47,51.8v6.43H109.2V51.8Z"/><path class="cls-3" d="M24.09,82.69l3,4.79h0V82.69h1.47v7.14H27l-3-4.78h0v4.78H22.53V82.69Z"/><path class="cls-3" d="M33.5,82.69l2.67,7.14H34.54L34,88.24H31.33l-.56,1.59H29.19l2.7-7.14Zm.09,4.38-.9-2.62h0l-.93,2.62Z"/><path class="cls-3" d="M35.31,84V82.69h5.85V84H39v5.82H37.45V84Z"/><path class="cls-3" d="M47.23,89.29a3.93,3.93,0,0,1-4.48,0,2.73,2.73,0,0,1-.8-2.16V82.69h1.57v4.44a3.22,3.22,0,0,0,.05.57,1.11,1.11,0,0,0,.66.85,1.81,1.81,0,0,0,.76.14,1.47,1.47,0,0,0,1.16-.37,1.79,1.79,0,0,0,.32-1.18V82.69H48v4.44A2.71,2.71,0,0,1,47.23,89.29Z"/><path class="cls-3" d="M53.24,82.69a2.3,2.3,0,0,1,.86.15,2,2,0,0,1,.66.43,1.84,1.84,0,0,1,.42.63,2,2,0,0,1,.14.76,2.15,2.15,0,0,1-.26,1.09,1.66,1.66,0,0,1-.86.7v0a1.21,1.21,0,0,1,.48.25,1.36,1.36,0,0,1,.31.39,1.82,1.82,0,0,1,.18.5,4.34,4.34,0,0,1,.07.54c0,.11,0,.25,0,.4s0,.31,0,.47a3.11,3.11,0,0,0,.08.46,1,1,0,0,0,.17.36H54a2.76,2.76,0,0,1-.16-.81q0-.47-.09-.9a1.42,1.42,0,0,0-.34-.82,1.17,1.17,0,0,0-.85-.26H51v2.79H49.39V82.69Zm-.56,3.23a1.19,1.19,0,0,0,.81-.24,1,1,0,0,0,.27-.78,1,1,0,0,0-.27-.75,1.2,1.2,0,0,0-.81-.24H51v2Z"/><path class="cls-3" d="M60.17,82.69l2.67,7.14H61.21l-.54-1.59H58l-.56,1.59H55.86l2.7-7.14Zm.09,4.38-.9-2.62h0l-.93,2.62Z"/><path class="cls-3" d="M65,82.69v5.82h3.48v1.32H63.46V82.69Z"/><path class="cls-3" d="M73.37,88.07a1.13,1.13,0,0,0,.35.41,1.48,1.48,0,0,0,.5.23,2.37,2.37,0,0,0,.6.08,3.12,3.12,0,0,0,.45,0,1.58,1.58,0,0,0,.45-.13,1,1,0,0,0,.35-.28.69.69,0,0,0,.14-.44.63.63,0,0,0-.19-.47,1.46,1.46,0,0,0-.48-.3,4.83,4.83,0,0,0-.68-.21l-.77-.2a6.77,6.77,0,0,1-.78-.24,2.68,2.68,0,0,1-.68-.37,1.78,1.78,0,0,1-.48-.57,1.75,1.75,0,0,1-.19-.83,1.87,1.87,0,0,1,.24-1,2.12,2.12,0,0,1,.61-.68,2.68,2.68,0,0,1,.86-.4,3.66,3.66,0,0,1,1-.13,4.55,4.55,0,0,1,1.08.13,2.69,2.69,0,0,1,.92.41,2.05,2.05,0,0,1,.63.72,2.19,2.19,0,0,1,.24,1.05H76a1.27,1.27,0,0,0-.14-.53.89.89,0,0,0-.3-.33,1.31,1.31,0,0,0-.44-.17,2.69,2.69,0,0,0-.54,0,1.86,1.86,0,0,0-.38,0,1,1,0,0,0-.35.14.86.86,0,0,0-.25.25.67.67,0,0,0-.1.38.64.64,0,0,0,.08.34.71.71,0,0,0,.31.24,4,4,0,0,0,.65.22l1.08.28.56.15a2.65,2.65,0,0,1,.71.33,2.13,2.13,0,0,1,.6.62,1.75,1.75,0,0,1,.25,1,2.18,2.18,0,0,1-.19.91,2,2,0,0,1-.56.73,2.71,2.71,0,0,1-.93.48,4.4,4.4,0,0,1-1.28.17,4.51,4.51,0,0,1-1.15-.15,2.88,2.88,0,0,1-1-.45A2.25,2.25,0,0,1,72,88.6a2.36,2.36,0,0,1-.24-1.14h1.52A1.31,1.31,0,0,0,73.37,88.07Z"/><path class="cls-3" d="M78.1,84V82.69h5.85V84H81.81v5.82H80.24V84Z"/><path class="cls-3" d="M84,82.69h1.76l1.67,2.82,1.66-2.82h1.75l-2.65,4.4v2.74H86.62V87.05Z"/><path class="cls-3" d="M93,82.69v5.82h3.48v1.32h-5V82.69Z"/><path class="cls-3" d="M102.71,82.69V84H98.94v1.53h3.46v1.22H98.94v1.75h3.85v1.32H97.37V82.69Z"/><path class="cls-3" d="M60.18,29.87a1.89,1.89,0,0,1,1.1-1.13,2.36,2.36,0,0,1,.88-.16,2.4,2.4,0,0,1,.88.16,1.88,1.88,0,0,1,1.11,1.13,2.55,2.55,0,0,1,.15.9,2.51,2.51,0,0,1-.15.9,2,2,0,0,1-.43.68,1.88,1.88,0,0,1-.68.44,2.45,2.45,0,0,1-.88.15,2.42,2.42,0,0,1-.88-.15,1.89,1.89,0,0,1-.67-.44,1.94,1.94,0,0,1-.43-.68,2.51,2.51,0,0,1-.15-.9A2.54,2.54,0,0,1,60.18,29.87Zm1,1.38a1.3,1.3,0,0,0,.16.42.88.88,0,0,0,.31.3.94.94,0,0,0,.48.11,1,1,0,0,0,.48-.11.86.86,0,0,0,.31-.3,1.28,1.28,0,0,0,.16-.42,2.4,2.4,0,0,0,0-.48,2.47,2.47,0,0,0,0-.49,1.24,1.24,0,0,0-.16-.42.91.91,0,0,0-.31-.3.93.93,0,0,0-.48-.12.91.91,0,0,0-.48.12.92.92,0,0,0-.31.3,1.26,1.26,0,0,0-.16.42,2.5,2.5,0,0,0,0,.49A2.44,2.44,0,0,0,61.21,31.25Z"/><path class="cls-3" d="M64.61,29.46V28.7h.68v-.32a1.24,1.24,0,0,1,.34-.9,1.39,1.39,0,0,1,1-.35H67l.3,0V28l-.42,0a.44.44,0,0,0-.33.11.53.53,0,0,0-.1.36v.25h.78v.76h-.78v3.38H65.29V29.46Z"/><path class="cls-3" d="M47.16,76.5V69.24H44.34V67.52a5.35,5.35,0,0,0,1.14-.09,3,3,0,0,0,1-.37,2.44,2.44,0,0,0,.74-.7,2.47,2.47,0,0,0,.4-1.07h1.81V76.5Z"/><path class="cls-3" d="M52.72,68.11a4.93,4.93,0,0,1,.89-1.78,3.18,3.18,0,0,1,1.3-1,4.33,4.33,0,0,1,1.58-.29,4.38,4.38,0,0,1,1.59.29,3.24,3.24,0,0,1,1.31,1,4.87,4.87,0,0,1,.9,1.78,9.85,9.85,0,0,1,.33,2.74,10.23,10.23,0,0,1-.33,2.81,4.86,4.86,0,0,1-.9,1.8,3.24,3.24,0,0,1-1.31,1,4.37,4.37,0,0,1-1.59.29,4.32,4.32,0,0,1-1.58-.29,3.18,3.18,0,0,1-1.3-1,4.93,4.93,0,0,1-.89-1.8,10.21,10.21,0,0,1-.33-2.81A9.83,9.83,0,0,1,52.72,68.11Zm2,3.9a6.25,6.25,0,0,0,.2,1.31,2.81,2.81,0,0,0,.54,1.08,1.29,1.29,0,0,0,1.06.45,1.33,1.33,0,0,0,1.08-.45,2.75,2.75,0,0,0,.54-1.08,6.22,6.22,0,0,0,.2-1.31q0-.68,0-1.16,0-.29,0-.7a7.78,7.78,0,0,0-.06-.84,7.87,7.87,0,0,0-.16-.86,2.62,2.62,0,0,0-.31-.76,1.72,1.72,0,0,0-.53-.54,1.41,1.41,0,0,0-.78-.21,1.37,1.37,0,0,0-.78.21,1.67,1.67,0,0,0-.51.54,2.92,2.92,0,0,0-.31.76,5.93,5.93,0,0,0-.16.86q0,.43-.06.84t0,.7Q54.66,71.33,54.69,72Z"/><path class="cls-3" d="M61.61,68.11a4.93,4.93,0,0,1,.89-1.78,3.18,3.18,0,0,1,1.3-1,4.33,4.33,0,0,1,1.58-.29,4.38,4.38,0,0,1,1.59.29,3.24,3.24,0,0,1,1.31,1,4.87,4.87,0,0,1,.9,1.78,9.83,9.83,0,0,1,.33,2.74,10.21,10.21,0,0,1-.33,2.81,4.86,4.86,0,0,1-.9,1.8,3.24,3.24,0,0,1-1.31,1,4.37,4.37,0,0,1-1.59.29,4.32,4.32,0,0,1-1.58-.29,3.18,3.18,0,0,1-1.3-1,4.93,4.93,0,0,1-.89-1.8,10.21,10.21,0,0,1-.33-2.81A9.83,9.83,0,0,1,61.61,68.11Zm2,3.9a6.25,6.25,0,0,0,.2,1.31,2.81,2.81,0,0,0,.54,1.08,1.29,1.29,0,0,0,1.06.45,1.33,1.33,0,0,0,1.08-.45A2.75,2.75,0,0,0,67,73.32,6.22,6.22,0,0,0,67.2,72q0-.68,0-1.16,0-.29,0-.7a7.78,7.78,0,0,0-.06-.84,7.87,7.87,0,0,0-.16-.86,2.62,2.62,0,0,0-.31-.76,1.72,1.72,0,0,0-.53-.54,1.41,1.41,0,0,0-.78-.21,1.37,1.37,0,0,0-.78.21,1.67,1.67,0,0,0-.51.54,2.92,2.92,0,0,0-.31.76,5.93,5.93,0,0,0-.16.86q0,.43-.06.84t0,.7Q63.56,71.33,63.59,72Z"/><path class="cls-3" d="M71.2,67a2.87,2.87,0,0,1,.5-1,2.36,2.36,0,0,1,.85-.68,2.76,2.76,0,0,1,1.22-.25,2.71,2.71,0,0,1,1.25.26,2.23,2.23,0,0,1,.81.7,2.78,2.78,0,0,1,.44,1,5.89,5.89,0,0,1,.13,1.25,4.32,4.32,0,0,1-.16,1.21,2.64,2.64,0,0,1-.49,1,2.21,2.21,0,0,1-.84.62,3,3,0,0,1-1.22.22,3,3,0,0,1-1.24-.23,2.12,2.12,0,0,1-.82-.64,2.56,2.56,0,0,1-.45-1A5.24,5.24,0,0,1,71,68.24,4.59,4.59,0,0,1,71.2,67Zm1.49,1.84a2.16,2.16,0,0,0,.11.6,1.13,1.13,0,0,0,.3.47,1,1,0,0,0,1.18,0,1.16,1.16,0,0,0,.32-.47,2.17,2.17,0,0,0,.13-.59q0-.31,0-.57t0-.58a3.05,3.05,0,0,0-.12-.66,1.42,1.42,0,0,0-.3-.54.7.7,0,0,0-.55-.22.83.83,0,0,0-.6.21,1.34,1.34,0,0,0-.33.51,2.35,2.35,0,0,0-.14.66q0,.35,0,.62T72.69,68.85Zm9.2-3.9L75.3,76.84H73.91l6.62-11.89Zm-2.43,7.41a2.73,2.73,0,0,1,.5-1,2.36,2.36,0,0,1,.85-.66A2.84,2.84,0,0,1,82,70.48a2.78,2.78,0,0,1,1.25.25,2.22,2.22,0,0,1,.81.67,2.63,2.63,0,0,1,.44,1,5.66,5.66,0,0,1,.13,1.23,4.42,4.42,0,0,1-.16,1.22,2.8,2.8,0,0,1-.49,1,2.21,2.21,0,0,1-.84.65,2.93,2.93,0,0,1-1.22.23,2.87,2.87,0,0,1-1.24-.24,2.13,2.13,0,0,1-.82-.66,2.72,2.72,0,0,1-.45-1,5.37,5.37,0,0,1-.14-1.23A4.4,4.4,0,0,1,79.46,72.36Zm1.49,1.82a2.4,2.4,0,0,0,.11.63,1.24,1.24,0,0,0,.3.5.93.93,0,0,0,1.18,0,1.28,1.28,0,0,0,.32-.5,2.41,2.41,0,0,0,.13-.62q0-.33,0-.58T83,73a2.65,2.65,0,0,0-.12-.62,1.36,1.36,0,0,0-.3-.51.72.72,0,0,0-.55-.22.87.87,0,0,0-.6.19,1.22,1.22,0,0,0-.33.48A2.14,2.14,0,0,0,81,73q0,.34,0,.61T80.95,74.18Z"/></g></svg>