<svg xmlns="http://www.w3.org/2000/svg" viewBox="0 0 100 50"><defs><style>.cls-1{fill:#fff;}.cls-2,.cls-6{fill:#05596d;}.cls-3{font-size:10px;fill:#ff0;font-family:HelveticaNeue, Helvetica Neue;}.cls-4{letter-spacing:-0.09em;}.cls-5{letter-spacing:0em;}.cls-6{font-size:21px;font-family:HelveticaNeue-Bold, Helvetica Neue;font-weight:700;}</style></defs><title>home_icon_simple_fresh</title><g id="great_sense" data-name="great sense"><rect class="cls-1" x="-0.24" y="0.08" width="100.25" height="49.89" rx="5.09" ry="5.09"/><path class="cls-2" d="M100,35.18v9.7A5.09,5.09,0,0,1,94.92,50H4.85A5.09,5.09,0,0,1-.24,44.88v-9.7S100.16,35,100,35.18Z"/><path class="cls-2" d="M7.81,8.45a.67.67,0,0,0,.2.22.85.85,0,0,0,.28.13,1.31,1.31,0,0,0,.33,0l.25,0a.86.86,0,0,0,.24-.09.55.55,0,0,0,.18-.16.43.43,0,0,0,.07-.26Q9.37,8,9,7.91a6.85,6.85,0,0,0-1-.26l-.49-.13a1.68,1.68,0,0,1-.43-.2A1,1,0,0,1,6.85,7a.89.89,0,0,1-.11-.47,1.26,1.26,0,0,1,.16-.66,1.16,1.16,0,0,1,.42-.41,1.83,1.83,0,0,1,.58-.21,3.59,3.59,0,0,1,.66-.06,3.33,3.33,0,0,1,.66.06,1.75,1.75,0,0,1,.57.22,1.31,1.31,0,0,1,.42.41,1.37,1.37,0,0,1,.2.64H9.31a.5.5,0,0,0-.25-.45A1.15,1.15,0,0,0,8.53,6H8.32A.71.71,0,0,0,8.11,6,.43.43,0,0,0,8,6.14a.31.31,0,0,0-.06.21A.32.32,0,0,0,8,6.6a.87.87,0,0,0,.3.16l.42.11L9.19,7l.49.14a1.61,1.61,0,0,1,.43.21,1,1,0,0,1,.3.33,1,1,0,0,1,.11.49,1.27,1.27,0,0,1-.6,1.14,1.77,1.77,0,0,1-.61.24,3.57,3.57,0,0,1-.7.07,3.48,3.48,0,0,1-.71-.07,1.88,1.88,0,0,1-.62-.24,1.39,1.39,0,0,1-.45-.45,1.41,1.41,0,0,1-.19-.7H7.73A.63.63,0,0,0,7.81,8.45Z"/><path class="cls-2" d="M11.22,4.66V3.71h1.15v.95Zm1.15.65V9.49H11.22V5.31Z"/><path class="cls-2" d="M14.4,5.31v.57h0a1.63,1.63,0,0,1,.55-.5,1.48,1.48,0,0,1,.73-.18,1.69,1.69,0,0,1,.73.15,1,1,0,0,1,.5.54,1.79,1.79,0,0,1,.51-.49,1.35,1.35,0,0,1,.76-.21,2.23,2.23,0,0,1,.62.08,1.24,1.24,0,0,1,.49.26A1.19,1.19,0,0,1,19.6,6a1.89,1.89,0,0,1,.11.69v2.8H18.56V7.12q0-.21,0-.4a.84.84,0,0,0-.09-.32.54.54,0,0,0-.21-.22.78.78,0,0,0-.38-.08.73.73,0,0,0-.39.09.67.67,0,0,0-.23.24,1,1,0,0,0-.11.34,2.6,2.6,0,0,0,0,.38V9.49H15.94V7.15q0-.19,0-.37a1,1,0,0,0-.07-.34.52.52,0,0,0-.2-.25.76.76,0,0,0-.42-.09l-.21,0a.71.71,0,0,0-.26.14.8.8,0,0,0-.21.29,1.18,1.18,0,0,0-.09.5V9.49H13.31V5.31Z"/><path class="cls-2" d="M21.71,5.31v.53h0a1.27,1.27,0,0,1,.53-.49A1.64,1.64,0,0,1,23,5.19a1.81,1.81,0,0,1,.85.19,1.76,1.76,0,0,1,.59.49,2.1,2.1,0,0,1,.35.72,3.19,3.19,0,0,1,.11.85,2.88,2.88,0,0,1-.11.81,2.07,2.07,0,0,1-.34.69,1.71,1.71,0,0,1-.58.48A1.73,1.73,0,0,1,23,9.6a1.63,1.63,0,0,1-.72-.16A1.36,1.36,0,0,1,21.79,9h0v2H20.62V5.31Zm1.49,3.32a.92.92,0,0,0,.31-.3,1.22,1.22,0,0,0,.17-.43,2.51,2.51,0,0,0,0-.49,2.33,2.33,0,0,0-.05-.49,1.32,1.32,0,0,0-.17-.43,1,1,0,0,0-.31-.31.87.87,0,0,0-.47-.12.89.89,0,0,0-.47.12.94.94,0,0,0-.31.3,1.26,1.26,0,0,0-.17.43,2.56,2.56,0,0,0,0,.5,2.33,2.33,0,0,0,.05.49,1.28,1.28,0,0,0,.17.43,1,1,0,0,0,1.26.3Z"/><path class="cls-2" d="M26.75,3.71V9.49H25.6V3.71Z"/><path class="cls-2" d="M28.89,8.49a1.18,1.18,0,0,0,1.34.08.72.72,0,0,0,.31-.37h1a1.92,1.92,0,0,1-.75,1.08,2.19,2.19,0,0,1-1.21.32,2.39,2.39,0,0,1-.89-.16A1.85,1.85,0,0,1,28,9a2,2,0,0,1-.43-.7,2.55,2.55,0,0,1-.15-.89,2.44,2.44,0,0,1,.15-.87,2,2,0,0,1,1.11-1.17,2.17,2.17,0,0,1,.87-.17,2,2,0,0,1,.93.21,1.86,1.86,0,0,1,.65.55,2.28,2.28,0,0,1,.37.79,3,3,0,0,1,.08.93h-3A1.16,1.16,0,0,0,28.89,8.49Zm1.3-2.2a.81.81,0,0,0-.63-.23,1,1,0,0,0-.46.09.88.88,0,0,0-.29.23.85.85,0,0,0-.15.29,1.31,1.31,0,0,0-.05.28h1.87A1.33,1.33,0,0,0,30.19,6.29Z"/><path class="cls-2" d="M35.88,8.25V9.49H34.61V8.25Z"/><path class="cls-2" d="M38.63,6.08V5.31h.69V5a1.25,1.25,0,0,1,.35-.92,1.41,1.41,0,0,1,1.05-.36H41l.3,0V4.6l-.42,0a.44.44,0,0,0-.34.11.54.54,0,0,0-.1.37v.25h.79v.77h-.79V9.49H39.31V6.08Z"/><path class="cls-2" d="M42.85,5.31v.78h0a1.4,1.4,0,0,1,.22-.36,1.43,1.43,0,0,1,.32-.28,1.55,1.55,0,0,1,.38-.18,1.38,1.38,0,0,1,.42-.06.9.9,0,0,1,.25,0V6.3l-.19,0H44a1.23,1.23,0,0,0-.53.11.92.92,0,0,0-.35.29,1.15,1.15,0,0,0-.19.43,2.32,2.32,0,0,0-.06.53V9.49H41.76V5.31Z"/><path class="cls-2" d="M46,8.49a1.18,1.18,0,0,0,1.34.08.72.72,0,0,0,.31-.37h1a1.92,1.92,0,0,1-.75,1.08,2.19,2.19,0,0,1-1.21.32,2.39,2.39,0,0,1-.89-.16A1.85,1.85,0,0,1,45.14,9a2,2,0,0,1-.43-.7,2.55,2.55,0,0,1-.15-.89,2.44,2.44,0,0,1,.15-.87,2,2,0,0,1,1.11-1.17,2.17,2.17,0,0,1,.87-.17,2,2,0,0,1,.93.21,1.86,1.86,0,0,1,.65.55,2.28,2.28,0,0,1,.37.79,3,3,0,0,1,.08.93h-3A1.16,1.16,0,0,0,46,8.49Zm1.3-2.2a.81.81,0,0,0-.63-.23,1,1,0,0,0-.46.09.88.88,0,0,0-.29.23.85.85,0,0,0-.15.29,1.31,1.31,0,0,0-.05.28h1.87A1.33,1.33,0,0,0,47.3,6.29Z"/><path class="cls-2" d="M50.38,8.45a.67.67,0,0,0,.2.22.85.85,0,0,0,.28.13,1.31,1.31,0,0,0,.33,0l.25,0a.86.86,0,0,0,.24-.09.55.55,0,0,0,.18-.16.43.43,0,0,0,.07-.26q0-.26-.34-.39a6.84,6.84,0,0,0-1-.26l-.49-.13a1.68,1.68,0,0,1-.43-.2,1,1,0,0,1-.3-.32.89.89,0,0,1-.11-.47,1.26,1.26,0,0,1,.16-.66,1.16,1.16,0,0,1,.42-.41,1.83,1.83,0,0,1,.58-.21,3.59,3.59,0,0,1,.66-.06,3.34,3.34,0,0,1,.66.06,1.76,1.76,0,0,1,.57.22,1.31,1.31,0,0,1,.42.41,1.37,1.37,0,0,1,.2.64H51.88a.5.5,0,0,0-.25-.45A1.15,1.15,0,0,0,51.1,6h-.21a.7.7,0,0,0-.21.05.43.43,0,0,0-.16.12.31.31,0,0,0-.06.21.32.32,0,0,0,.11.25.87.87,0,0,0,.3.16l.42.11.48.11.49.14a1.62,1.62,0,0,1,.43.21,1,1,0,0,1,.3.33,1,1,0,0,1,.11.49,1.27,1.27,0,0,1-.6,1.14,1.77,1.77,0,0,1-.61.24,3.57,3.57,0,0,1-.7.07,3.48,3.48,0,0,1-.71-.07,1.88,1.88,0,0,1-.62-.24,1.39,1.39,0,0,1-.45-.45,1.41,1.41,0,0,1-.19-.7H50.3A.63.63,0,0,0,50.38,8.45Z"/><path class="cls-2" d="M54.91,3.71V5.89h0a1.33,1.33,0,0,1,.56-.53,1.51,1.51,0,0,1,.66-.17,2,2,0,0,1,.76.13,1.12,1.12,0,0,1,.47.35,1.35,1.35,0,0,1,.24.54,3.38,3.38,0,0,1,.07.71V9.49H56.54V7.13a1.47,1.47,0,0,0-.16-.77.63.63,0,0,0-.57-.26.8.8,0,0,0-.68.28,1.55,1.55,0,0,0-.21.92v2.2H53.76V3.71Z"/><path class="cls-2" d="M62.14,8.25V9.49H60.87V8.25Z"/><path class="cls-2" d="M65.35,6.49a1.91,1.91,0,0,1,1.12-1.14,2.39,2.39,0,0,1,.89-.16,2.42,2.42,0,0,1,.89.16,1.91,1.91,0,0,1,1.12,1.14,2.58,2.58,0,0,1,.15.91,2.54,2.54,0,0,1-.15.91,2,2,0,0,1-.44.69,1.9,1.9,0,0,1-.68.44,2.49,2.49,0,0,1-.89.15,2.46,2.46,0,0,1-.89-.15A1.92,1.92,0,0,1,65.78,9a2,2,0,0,1-.44-.69,2.53,2.53,0,0,1-.15-.91A2.57,2.57,0,0,1,65.35,6.49Zm1,1.4a1.32,1.32,0,0,0,.17.43.89.89,0,0,0,.31.3,1,1,0,0,0,.49.11,1,1,0,0,0,.49-.11.87.87,0,0,0,.32-.3,1.29,1.29,0,0,0,.17-.43,2.43,2.43,0,0,0,0-.49,2.49,2.49,0,0,0,0-.49,1.25,1.25,0,0,0-.17-.43.92.92,0,0,0-.32-.3,1,1,0,0,0-.49-.12.88.88,0,0,0-.8.42,1.27,1.27,0,0,0-.17.43,2.53,2.53,0,0,0,0,.49A2.47,2.47,0,0,0,66.39,7.89Z"/><path class="cls-2" d="M71.36,5.31v.78h0a1.41,1.41,0,0,1,.22-.36,1.43,1.43,0,0,1,.32-.28,1.55,1.55,0,0,1,.38-.18,1.38,1.38,0,0,1,.42-.06.9.9,0,0,1,.25,0V6.3l-.19,0h-.22a1.23,1.23,0,0,0-.53.11.92.92,0,0,0-.35.29,1.15,1.15,0,0,0-.19.43,2.31,2.31,0,0,0-.06.53V9.49H70.27V5.31Z"/><path class="cls-2" d="M73.45,4.66V3.71H74.6v.95Zm1.15.65V9.49H73.45V5.31Z"/><path class="cls-2" d="M79.47,9.8a1.43,1.43,0,0,1-.3.6,1.76,1.76,0,0,1-.66.47,2.83,2.83,0,0,1-1.15.19,2.69,2.69,0,0,1-.63-.08,2,2,0,0,1-.58-.24,1.43,1.43,0,0,1-.44-.42,1.21,1.21,0,0,1-.2-.61h1.14a.66.66,0,0,0,.32.45,1.14,1.14,0,0,0,.54.13.83.83,0,0,0,.71-.29,1.14,1.14,0,0,0,.22-.74V8.72h0a1.14,1.14,0,0,1-.53.49,1.72,1.72,0,0,1-.73.16,1.83,1.83,0,0,1-.81-.17,1.54,1.54,0,0,1-.56-.45,1.9,1.9,0,0,1-.32-.67,3.18,3.18,0,0,1-.1-.81,2.62,2.62,0,0,1,.12-.78,2,2,0,0,1,.34-.66,1.67,1.67,0,0,1,.56-.46,1.69,1.69,0,0,1,.77-.17,1.62,1.62,0,0,1,.73.15,1.26,1.26,0,0,1,.52.52h0V5.31h1.09V9.23A2.84,2.84,0,0,1,79.47,9.8ZM77.89,8.41a.9.9,0,0,0,.31-.26,1.14,1.14,0,0,0,.18-.37,1.53,1.53,0,0,0,.06-.43,2.35,2.35,0,0,0,0-.49,1.22,1.22,0,0,0-.16-.41.84.84,0,0,0-.3-.28,1,1,0,0,0-.47-.11.85.85,0,0,0-.42.1.88.88,0,0,0-.29.26,1.11,1.11,0,0,0-.17.38,1.89,1.89,0,0,0-.05.45,2.3,2.3,0,0,0,0,.45,1.21,1.21,0,0,0,.15.4.9.9,0,0,0,.29.29.81.81,0,0,0,.45.11A.92.92,0,0,0,77.89,8.41Z"/><path class="cls-2" d="M80.49,4.66V3.71h1.15v.95Zm1.15.65V9.49H80.49V5.31Z"/><path class="cls-2" d="M83.64,5.31v.58h0a1.32,1.32,0,0,1,.57-.53,1.64,1.64,0,0,1,.71-.17,2,2,0,0,1,.76.13,1.13,1.13,0,0,1,.47.35,1.35,1.35,0,0,1,.24.54,3.38,3.38,0,0,1,.07.71V9.49H85.33V7.13a1.47,1.47,0,0,0-.16-.77.63.63,0,0,0-.58-.26.8.8,0,0,0-.68.28,1.56,1.56,0,0,0-.21.92v2.2H82.55V5.31Z"/><path class="cls-2" d="M87.31,6.59a1.34,1.34,0,0,1,.2-.67A1.38,1.38,0,0,1,88,5.49a2,2,0,0,1,.62-.23,3.52,3.52,0,0,1,.69-.07,4.68,4.68,0,0,1,.64,0,2,2,0,0,1,.59.17,1.17,1.17,0,0,1,.44.36,1,1,0,0,1,.17.61V8.56a4.37,4.37,0,0,0,0,.54,1,1,0,0,0,.11.39H90.09A1.58,1.58,0,0,1,90,9.3a1.66,1.66,0,0,1,0-.21,1.5,1.5,0,0,1-.65.4,2.6,2.6,0,0,1-.76.11A2.06,2.06,0,0,1,88,9.53a1.27,1.27,0,0,1-.45-.23,1.05,1.05,0,0,1-.3-.39,1.31,1.31,0,0,1-.11-.56,1.22,1.22,0,0,1,.13-.59,1.05,1.05,0,0,1,.32-.37,1.45,1.45,0,0,1,.45-.21l.51-.11L89.1,7a3.09,3.09,0,0,0,.45-.07.78.78,0,0,0,.31-.14A.31.31,0,0,0,90,6.53a.61.61,0,0,0-.06-.3.45.45,0,0,0-.16-.17A.64.64,0,0,0,89.5,6l-.29,0a.87.87,0,0,0-.53.15.65.65,0,0,0-.23.49ZM90,7.44a.51.51,0,0,1-.18.1l-.24.06-.26,0-.28,0-.26.06a.76.76,0,0,0-.22.11.51.51,0,0,0-.15.17.56.56,0,0,0-.06.27.54.54,0,0,0,.06.26.43.43,0,0,0,.15.17.65.65,0,0,0,.23.09l.27,0a1,1,0,0,0,.53-.11.75.75,0,0,0,.28-.27.87.87,0,0,0,.11-.32,2.26,2.26,0,0,0,0-.26Z"/><path class="cls-2" d="M93.19,3.71V9.49H92V3.71Z"/><text class="cls-3" transform="translate(9.34 46.12)">N<tspan class="cls-4" x="7.22" y="0">A</tspan><tspan class="cls-5" x="12.78" y="0">TURAL STYLE</tspan></text><text class="cls-6" transform="translate(5.79 29.96)">1 x 1.618</text></g></svg>