<?xml version="1.0" encoding="utf-8"?>
<!-- Generator: Adobe Illustrator 21.1.0, SVG Export Plug-In . SVG Version: 6.00 Build 0)  -->
<svg version="1.1" id="Layer_1" xmlns="http://www.w3.org/2000/svg" xmlns:xlink="http://www.w3.org/1999/xlink" x="0px" y="0px"
	 viewBox="0 0 240 52" style="enable-background:new 0 0 240 52;" xml:space="preserve">
<style type="text/css">
	.st0{fill:#FFFFFF;stroke:#FFFF00;stroke-width:2;stroke-miterlimit:10;}
	.st1{fill:#05596D;stroke:#FFFF22;stroke-miterlimit:10;}
	.st2{fill:#FFFF00;}
	.st3{font-family:'HelveticaNeue';}
	.st4{font-size:10px;}
	.st5{fill:#05596D;}
	.st6{font-family:'HelveticaNeue-Bold';}
	.st7{font-size:21px;}
	.st8{letter-spacing:-1;}
	.st9{letter-spacing:1;}
	.st10{fill:#FFFFFF;}
	.st11{font-size:18px;}
	.st12{font-size:12px;}
</style>
<title>home_icon_set</title>
<g>
	<path class="st0" d="M69.5,1.1h39.1c2.8,0,5.1,2.3,5.1,5.1v38.7c0,2.8-2.3,5.1-5.1,5.1H69.5c-2.8,0-5.1-2.3-5.1-5.1V6.2
		C64.4,3.3,66.7,1.1,69.5,1.1z"/>
	<path class="st1" d="M113.6,35.2v9.7c0,2.8-2.2,5.1-5,5.1c0,0,0,0,0,0H69.5c-2.8,0-5.1-2.3-5.1-5.1c0,0,0,0,0,0v-9.7
		C64.4,35.2,113.8,35,113.6,35.2z"/>
	<text transform="matrix(1 0 0 1 68.4849 46.12)" class="st2 st3 st4">100% DV</text>
	<text transform="matrix(1 0 0 1 67.7449 13.54)" class="st5 st6 st4">VI</text>
	<text transform="matrix(1 0 0 1 77.5649 13.54)" class="st5 st6 st4">T</text>
	<text transform="matrix(1 0 0 1 82.9448 13.54)" class="st5 st6 st4">AMIN</text>
	<text transform="matrix(1 0 0 1 66.2468 31.5)" class="st5 st6 st7">Pete</text>
</g>
<g>
	<path class="st0" d="M131.5,1.1h39.1c2.8,0,5.1,2.3,5.1,5.1v38.7c0,2.8-2.3,5.1-5.1,5.1h-39.1c-2.8,0-5.1-2.3-5.1-5.1V6.2
		C126.4,3.3,128.6,1.1,131.5,1.1z"/>
	<path class="st1" d="M175.6,35.2v9.7c0,2.8-2.2,5.1-5,5.1c0,0,0,0-0.1,0h-39.1c-2.8,0-5.1-2.3-5.1-5.1v-9.7
		C126.4,35.2,175.8,35,175.6,35.2z"/>
	<text transform="matrix(1 0 0 1 130.48 46.12)" class="st2 st3 st4">100% DV</text>
	<text transform="matrix(1 0 0 1 133.36 13.54)" class="st5 st6 st4">SUPER</text>
	<text transform="matrix(1 0 0 1 134.2128 31.9481)" class="st5 st6 st7 st8">F</text>
	<text transform="matrix(1 0 0 1 145.5128 31.9481)" class="st5 st6 st7 st8">A</text>
	<g>
		<text transform="matrix(1 0 0 1 157.9629 31.9481)" class="st5 st6 st7 st9">T</text>
	</g>
</g>
<g>
	<path class="st10" d="M193.8,1.1h39.1c2.8,0,5.1,2.3,5.1,5.1v38.7c0,2.8-2.3,5.1-5.1,5.1h-39.1c-2.8,0-5.1-2.3-5.1-5.1V6.2
		C188.8,3.3,191,1.1,193.8,1.1z"/>
	<path class="st5" d="M238,35.2v9.7c0,2.8-2.2,5.1-5,5.1c0,0,0,0,0,0h-39.1c-2.8,0-5.1-2.3-5.1-5.1v-9.7
		C188.8,35.2,238.1,35,238,35.2z"/>
	<text transform="matrix(1 0 0 1 192.86 46.12)" class="st2 st3 st4">100% DV</text>
	<text transform="matrix(1 0 0 1 205.74 10.54)" class="st5 st3 st4">SO</text>
	<g>
		<text transform="matrix(1 0 0 1 195.04 30.5)" class="st5 st6 st11 st9">F</text>
		<text transform="matrix(1 0 0 1 206.34 30.5)" class="st5 st6 st11 st9">A</text>
		<text transform="matrix(1 0 0 1 218.79 30.5)" class="st5 st6 st11 st9">T</text>
	</g>
	<path class="st0" d="M193.8,1.1h39.1c2.8,0,5.1,2.3,5.1,5.1v38.7c0,2.8-2.3,5.1-5.1,5.1h-39.1c-2.8,0-5.1-2.3-5.1-5.1V6.2
		C188.8,3.3,191,1.1,193.8,1.1z"/>
	<text transform="matrix(1 0 0 1 191.1 31.2559)" class="st5 st6 st12">WHEEL</text>
	<text transform="matrix(1 0 0 1 188.8201 44.1909)" class="st5 st6 st4">SPINNING</text>
	<text transform="matrix(1 0 0 1 191.6 18.02)" class="st5 st6 st11 st9">zero</text>
</g>
<g>
	<path class="st0" d="M7.1,1.6h39.1c2.8,0,5.1,2.3,5.1,5.1v38.7c0,2.8-2.3,5.1-5.1,5.1H7.1c-2.8,0-5.1-2.3-5.1-5.1V6.7
		C2,3.8,4.3,1.6,7.1,1.6z"/>
	<g>
		<text transform="matrix(1 0 0 1 9.85 19.02)" class="st5 st6 st11 st9">75</text>
	</g>
	<text transform="matrix(1 0 0 1 31.88 19.02)" class="st5 st6 st4">kg</text>
	<text transform="matrix(1 0 0 1 7.19 44.1907)" class="st5 st6 st4">HUSTLE</text>
	<text transform="matrix(1 0 0 1 7.35 32.2559)" class="st5 st6 st12">SOLID</text>
</g>
</svg>
