<svg id="Layer_2" data-name="Layer 2" xmlns="http://www.w3.org/2000/svg" xmlns:xlink="http://www.w3.org/1999/xlink" viewBox="0 0 256.3 107.16"><defs><style>.cls-1,.cls-2{fill:#fff;}.cls-2{font-size:19px;font-family:ArialRoundedMTBold, Arial Rounded MT Bold;}.cls-3{letter-spacing:-0.04em;}.cls-4{letter-spacing:-0.02em;}</style><symbol id="picksoul_barcode_vector" data-name="picksoul_barcode_vector" viewBox="0 0 245.84 98.75"><rect class="cls-1" y="0.23" width="3.94" height="76.04"/><rect class="cls-1" x="6.23" width="1.85" height="76.04"/><rect class="cls-1" x="12.23" width="1.85" height="76.04"/><rect class="cls-1" x="22.23" width="1.85" height="76.04"/><rect class="cls-1" x="26.23" width="1.85" height="76.04"/><rect class="cls-1" x="32.23" width="7.67" height="76.04"/><rect class="cls-1" x="44.23" width="1.85" height="76.04"/><rect class="cls-1" x="54.23" width="3.86" height="76.04"/><rect class="cls-1" x="60.23" width="1.85" height="76.04"/><rect class="cls-1" x="66.23" width="1.85" height="76.04"/><rect class="cls-1" x="76.23" width="1.85" height="76.04"/><rect class="cls-1" x="80.23" width="3.63" height="76.04"/><rect class="cls-1" x="88.23" width="3.63" height="76.04"/><rect class="cls-1" x="100.23" width="1.85" height="76.04"/><rect class="cls-1" x="106.23" width="1.85" height="76.04"/><rect class="cls-1" x="110.23" width="1.85" height="76.04"/><rect class="cls-1" x="114.23" width="7.67" height="76.04"/><rect class="cls-1" x="126.23" width="1.85" height="76.04"/><rect class="cls-1" x="132.23" width="1.85" height="76.04"/><rect class="cls-1" x="140.23" width="7.97" height="76.04"/><rect class="cls-1" x="150.23" width="1.85" height="76.04"/><rect class="cls-1" x="154.23" width="1.85" height="76.04"/><rect class="cls-1" x="160.23" width="7.66" height="76.04"/><rect class="cls-1" x="172.23" width="1.63" height="76.04"/><rect class="cls-1" x="176.23" width="3.8" height="76.04"/><rect class="cls-1" x="184.23" width="1.63" height="76.04"/><rect class="cls-1" x="188.23" width="1.63" height="76.04"/><rect class="cls-1" x="198.23" width="3.91" height="76.04"/><rect class="cls-1" x="204.23" width="1.63" height="76.04"/><rect class="cls-1" x="212.23" width="1.63" height="76.04"/><rect class="cls-1" x="220.23" width="3.64" height="76.04"/><rect class="cls-1" x="230.23" width="5.77" height="76.04"/><rect class="cls-1" x="238.23" width="2.03" height="76.04"/><rect class="cls-1" x="242.23" width="3.61" height="76.04"/><text class="cls-2" transform="translate(84.73 94.74)">pi<tspan class="cls-3" x="17.02" y="0">c</tspan><tspan class="cls-4" x="27.59" y="0">k</tspan><tspan x="38.01" y="0">soul</tspan></text></symbol></defs><title>barcodepicksoul</title><use width="245.83" height="98.75" transform="translate(4.9 3.86)" xlink:href="#picksoul_barcode_vector"/></svg>