<svg id="Layer_1" data-name="Layer 1" xmlns="http://www.w3.org/2000/svg" xmlns:xlink="http://www.w3.org/1999/xlink" viewBox="0 0 160 100"><defs><style>.cls-1,.cls-3{fill:#05596d;}.cls-1{stroke:#fff;stroke-linecap:round;stroke-linejoin:round;stroke-width:4px;}.cls-2{fill:#fff;}.cls-4{fill:#f48e06;}</style><symbol id="hand" data-name="hand" viewBox="0 0 71.04 110.22"><path class="cls-1" d="M14,59V23.89c0-9,2.9-14.48,8-14.48s5.79,5.25,5.79,7.83c0,0,0-15.23,7.4-15.23s8.37,8.83,8.37,14.62c0,0-.72-8.54,5.83-8.54,3.23,0,6.4.68,6.4,12.59V33.54s-1-9,6-9S69,31.61,69,37.73V77.32c0,5.15-5.15,30.9-33.48,30.9S2.41,84.4,2.41,75.07s-2.58-29,5.15-29S13.68,56.42,14,59Z"/></symbol></defs><title>team_player</title><use width="71.04" height="110.22" transform="matrix(-0.22, 0.01, -0.01, -0.22, 58.68, 29.66)" xlink:href="#hand"/><use width="71.04" height="110.22" transform="matrix(-0.2, 0.11, -0.11, -0.2, 48.87, 27.98)" xlink:href="#hand"/><use width="71.04" height="110.22" transform="matrix(-0.12, 0.19, -0.19, -0.12, 38.73, 31.18)" xlink:href="#hand"/><use width="71.04" height="110.22" transform="matrix(-0.02, 0.22, -0.22, -0.02, 31.41, 38.81)" xlink:href="#hand"/><use width="71.04" height="110.22" transform="matrix(0.09, 0.21, -0.21, 0.09, 28.46, 48.9)" xlink:href="#hand"/><use width="71.04" height="110.22" transform="matrix(0.18, 0.14, -0.14, 0.18, 30.7, 59.44)" xlink:href="#hand"/><use width="71.04" height="110.22" transform="matrix(0.22, 0.04, -0.04, 0.22, 37.61, 67.52)" xlink:href="#hand"/><use width="71.04" height="110.22" transform="matrix(0.21, -0.07, 0.07, 0.21, 47.44, 71.39)" xlink:href="#hand"/><use width="71.04" height="110.22" transform="matrix(-0.2, -0.1, 0.1, -0.2, 66.9, 35.76)" xlink:href="#hand"/><path class="cls-2" d="M66.38,47.67V38.84H63V33.48l1.81,0a4.83,4.83,0,0,0,.9-.08,2,2,0,0,0,.67-.24,1.34,1.34,0,0,0,.41-.39A1.44,1.44,0,0,0,67,32.2l.21-1.38h5.21V47.67Z"/><path class="cls-3" d="M68,46V37.22H64.58V35.14A6.51,6.51,0,0,0,66,35a3.62,3.62,0,0,0,1.21-.45,3,3,0,0,0,.9-.85,3,3,0,0,0,.49-1.3h2.2V46Z"/><path class="cls-2" d="M83.22,47.92a6.9,6.9,0,0,1-2.5-.46,5.48,5.48,0,0,1-2.24-1.64,7.61,7.61,0,0,1-1.39-2.77,13.84,13.84,0,0,1-.46-3.86,13.38,13.38,0,0,1,.47-3.79,7.62,7.62,0,0,1,1.39-2.75A5.48,5.48,0,0,1,80.72,31a7.08,7.08,0,0,1,5,0A5.56,5.56,0,0,1,88,32.64a7.54,7.54,0,0,1,1.4,2.76,13.38,13.38,0,0,1,.47,3.79,13.89,13.89,0,0,1-.46,3.86A7.53,7.53,0,0,1,88,45.83a5.57,5.57,0,0,1-2.25,1.63A7,7,0,0,1,83.22,47.92Zm0-5.5h.1a1.78,1.78,0,0,0,.3-.65,6,6,0,0,0,.19-1.25q0-.78,0-1.33,0-.34,0-.81a7.83,7.83,0,0,0-.06-.84,8.22,8.22,0,0,0-.16-.86,1.58,1.58,0,0,0-.18-.46.48.48,0,0,0-.13-.15h-.18s0,0-.08.12a2,2,0,0,0-.2.51,5.44,5.44,0,0,0-.15.81c0,.3-.05.59-.06.87s0,.59,0,.81,0,.81,0,1.33a6,6,0,0,0,.19,1.25,1.86,1.86,0,0,0,.3.65Z"/><path class="cls-3" d="M78.65,35.85a6,6,0,0,1,1.08-2.17,3.87,3.87,0,0,1,1.58-1.17,5.25,5.25,0,0,1,1.92-.35,5.31,5.31,0,0,1,1.93.35,3.94,3.94,0,0,1,1.59,1.17,5.92,5.92,0,0,1,1.09,2.17,11.94,11.94,0,0,1,.4,3.33,12.41,12.41,0,0,1-.4,3.41,5.91,5.91,0,0,1-1.09,2.19A3.94,3.94,0,0,1,85.16,46a5.31,5.31,0,0,1-1.93.35A5.25,5.25,0,0,1,81.31,46a3.87,3.87,0,0,1-1.58-1.17,6,6,0,0,1-1.08-2.19,12.41,12.41,0,0,1-.4-3.41A11.94,11.94,0,0,1,78.65,35.85ZM81,40.6a7.58,7.58,0,0,0,.24,1.59,3.41,3.41,0,0,0,.65,1.31,1.56,1.56,0,0,0,1.28.54,1.62,1.62,0,0,0,1.31-.54,3.34,3.34,0,0,0,.66-1.31,7.58,7.58,0,0,0,.24-1.59q0-.83,0-1.41,0-.35,0-.85a9.39,9.39,0,0,0-.08-1,9.71,9.71,0,0,0-.19-1,3.2,3.2,0,0,0-.38-.92,2.09,2.09,0,0,0-.64-.66,1.71,1.71,0,0,0-1-.25,1.66,1.66,0,0,0-.94.25,2,2,0,0,0-.62.66,3.57,3.57,0,0,0-.38.92,7.12,7.12,0,0,0-.19,1q-.06.52-.07,1t0,.85Q81,39.77,81,40.6Z"/><path class="cls-2" d="M97.92,47.92a6.9,6.9,0,0,1-2.5-.46,5.48,5.48,0,0,1-2.24-1.64,7.61,7.61,0,0,1-1.39-2.77,13.86,13.86,0,0,1-.46-3.86,13.38,13.38,0,0,1,.47-3.79,7.62,7.62,0,0,1,1.39-2.75A5.48,5.48,0,0,1,95.42,31a7.08,7.08,0,0,1,5,0,5.56,5.56,0,0,1,2.25,1.63,7.54,7.54,0,0,1,1.4,2.76,13.38,13.38,0,0,1,.47,3.79,13.89,13.89,0,0,1-.46,3.86,7.53,7.53,0,0,1-1.41,2.78,5.57,5.57,0,0,1-2.25,1.63A7,7,0,0,1,97.92,47.92Zm0-5.5H98a1.78,1.78,0,0,0,.3-.65,6,6,0,0,0,.19-1.25q0-.78,0-1.33,0-.34,0-.81a7.83,7.83,0,0,0-.06-.84,8.22,8.22,0,0,0-.16-.86,1.58,1.58,0,0,0-.18-.46.48.48,0,0,0-.13-.15h-.18s0,0-.08.12a2,2,0,0,0-.2.51,5.44,5.44,0,0,0-.15.81c0,.3-.05.59-.06.87s0,.59,0,.81,0,.81,0,1.33a6,6,0,0,0,.19,1.25,1.86,1.86,0,0,0,.3.65Z"/><path class="cls-3" d="M93.34,35.85a6,6,0,0,1,1.08-2.17A3.87,3.87,0,0,1,96,32.52a5.25,5.25,0,0,1,1.92-.35,5.31,5.31,0,0,1,1.93.35,3.94,3.94,0,0,1,1.59,1.17,5.92,5.92,0,0,1,1.09,2.17,11.94,11.94,0,0,1,.4,3.33,12.41,12.41,0,0,1-.4,3.41,5.91,5.91,0,0,1-1.09,2.19A3.94,3.94,0,0,1,99.86,46a5.31,5.31,0,0,1-1.93.35A5.25,5.25,0,0,1,96,46a3.87,3.87,0,0,1-1.58-1.17,6,6,0,0,1-1.08-2.19,12.41,12.41,0,0,1-.4-3.41A11.94,11.94,0,0,1,93.34,35.85Zm2.4,4.74A7.58,7.58,0,0,0,96,42.19a3.41,3.41,0,0,0,.65,1.31,1.56,1.56,0,0,0,1.28.54,1.62,1.62,0,0,0,1.31-.54,3.34,3.34,0,0,0,.66-1.31,7.58,7.58,0,0,0,.24-1.59q0-.83,0-1.41,0-.35,0-.85a9.39,9.39,0,0,0-.08-1,9.71,9.71,0,0,0-.19-1,3.2,3.2,0,0,0-.38-.92,2.09,2.09,0,0,0-.64-.66,1.71,1.71,0,0,0-1-.25,1.66,1.66,0,0,0-.94.25,2,2,0,0,0-.62.66,3.57,3.57,0,0,0-.38.92,7.12,7.12,0,0,0-.19,1q-.06.52-.07,1t0,.85Q95.7,39.77,95.74,40.6Z"/><path class="cls-2" d="M109.41,48.08l3.82-6.85a5.86,5.86,0,0,1-1.33.15,5.2,5.2,0,0,1-2.18-.43,4.2,4.2,0,0,1-1.6-1.26,4.75,4.75,0,0,1-.83-1.79,8,8,0,0,1-.21-1.86,7.21,7.21,0,0,1,.25-1.93,5.13,5.13,0,0,1,.88-1.79,4.5,4.5,0,0,1,1.6-1.29,5,5,0,0,1,2.19-.46,4.89,4.89,0,0,1,2.26.49,4.31,4.31,0,0,1,1.56,1.35,5,5,0,0,1,.8,1.85c0,.23.09.47.12.71l2.54-4.55h5.36l-3.8,6.85a5.67,5.67,0,0,1,1.2-.12,5,5,0,0,1,2.24.47,4.31,4.31,0,0,1,1.56,1.31,4.8,4.8,0,0,1,.81,1.82,8.55,8.55,0,0,1,.19,1.85,7,7,0,0,1-.26,1.92,5,5,0,0,1-.88,1.74,4.3,4.3,0,0,1-1.62,1.26,5.17,5.17,0,0,1-2.15.43,5.1,5.1,0,0,1-2.2-.45,4.21,4.21,0,0,1-1.6-1.31,4.92,4.92,0,0,1-.82-1.81q-.07-.28-.11-.58l-2.38,4.3Z"/><path class="cls-3" d="M108.88,34.52a3.5,3.5,0,0,1,.6-1.22,2.88,2.88,0,0,1,1-.83,3.37,3.37,0,0,1,1.48-.3,3.29,3.29,0,0,1,1.52.31,2.7,2.7,0,0,1,1,.85,3.37,3.37,0,0,1,.53,1.25,7.17,7.17,0,0,1,.16,1.52,5.28,5.28,0,0,1-.19,1.47,3.21,3.21,0,0,1-.59,1.16,2.69,2.69,0,0,1-1,.76,3.67,3.67,0,0,1-1.48.27,3.59,3.59,0,0,1-1.51-.28,2.58,2.58,0,0,1-1-.78,3.13,3.13,0,0,1-.54-1.19,6.38,6.38,0,0,1-.17-1.49A5.57,5.57,0,0,1,108.88,34.52Zm1.81,2.24a2.61,2.61,0,0,0,.14.73,1.36,1.36,0,0,0,.37.57,1.21,1.21,0,0,0,1.43,0,1.41,1.41,0,0,0,.39-.57,2.63,2.63,0,0,0,.16-.72q0-.38,0-.69t0-.71a3.73,3.73,0,0,0-.15-.81,1.72,1.72,0,0,0-.36-.66.85.85,0,0,0-.67-.27,1,1,0,0,0-.73.25,1.62,1.62,0,0,0-.4.62,2.83,2.83,0,0,0-.17.8q0,.43,0,.76T110.69,36.76ZM121.87,32l-8,14.44h-1.69l8-14.44Zm-3,9a3.32,3.32,0,0,1,.6-1.19,2.87,2.87,0,0,1,1-.8,3.45,3.45,0,0,1,1.48-.29,3.38,3.38,0,0,1,1.52.3,2.69,2.69,0,0,1,1,.82,3.18,3.18,0,0,1,.53,1.22,6.9,6.9,0,0,1,.16,1.5A5.35,5.35,0,0,1,125,44a3.4,3.4,0,0,1-.59,1.19,2.68,2.68,0,0,1-1,.79,3.56,3.56,0,0,1-1.48.28,3.49,3.49,0,0,1-1.51-.29,2.6,2.6,0,0,1-1-.81,3.31,3.31,0,0,1-.54-1.21,6.51,6.51,0,0,1-.17-1.5A5.36,5.36,0,0,1,118.92,41Zm1.81,2.22a2.89,2.89,0,0,0,.14.77,1.51,1.51,0,0,0,.37.61,1.14,1.14,0,0,0,1.43,0A1.55,1.55,0,0,0,123,44a2.91,2.91,0,0,0,.16-.76q0-.4,0-.71t0-.69a3.19,3.19,0,0,0-.15-.76,1.65,1.65,0,0,0-.36-.62.87.87,0,0,0-.67-.26,1.06,1.06,0,0,0-.73.23,1.48,1.48,0,0,0-.4.58,2.59,2.59,0,0,0-.17.76q0,.41,0,.74T120.72,43.23Z"/><path class="cls-2" d="M71,67.51a11.08,11.08,0,0,1-1.66-.12,5,5,0,0,1-1.74-.59,3.71,3.71,0,0,1-1.42-1.47,4.59,4.59,0,0,1-.49-2.2v-5.3h-2V52.44h2V48.92h6.46v3.52h2.36v5.39H72.16v3.92h.12l.3,0,1.94-.4v5.85l-1.36.22a9.42,9.42,0,0,1-1.09.11Z"/><path class="cls-4" d="M72.89,54.06v2.15H70.54V62a1.09,1.09,0,0,0,1.36,1.36l.52,0,.48-.07v2.49a7.87,7.87,0,0,1-.91.09l-1,0a9.4,9.4,0,0,1-1.42-.1,3.35,3.35,0,0,1-1.18-.4,2.11,2.11,0,0,1-.81-.84,3,3,0,0,1-.29-1.43V56.21h-2V54.06h2V50.54h3.22v3.52Z"/><path class="cls-2" d="M84.39,67.7a8.34,8.34,0,0,1-3.09-.56,6.82,6.82,0,0,1-2.46-1.65A7.29,7.29,0,0,1,77.31,63a8.77,8.77,0,0,1-.52-3.06,8.49,8.49,0,0,1,.54-3,7.29,7.29,0,0,1,4-4.18,7.72,7.72,0,0,1,3.08-.61,7.2,7.2,0,0,1,3.35.76,6.85,6.85,0,0,1,2.39,2,8,8,0,0,1,1.29,2.78,9.89,9.89,0,0,1,.29,2.84h.39L91.62,62l0,.28h-.07l-.11.33a7,7,0,0,1-2.75,3.88A7.75,7.75,0,0,1,84.39,67.7Z"/><path class="cls-4" d="M82.42,63a3.3,3.3,0,0,0,3.77.22,2,2,0,0,0,.86-1h2.83a5.38,5.38,0,0,1-2.09,3,6.14,6.14,0,0,1-3.4.91,6.71,6.71,0,0,1-2.49-.44A5.19,5.19,0,0,1,80,64.37a5.65,5.65,0,0,1-1.19-1.95,7.13,7.13,0,0,1-.42-2.49,6.84,6.84,0,0,1,.43-2.45A5.67,5.67,0,0,1,82,54.21a6.08,6.08,0,0,1,2.44-.48,5.58,5.58,0,0,1,2.61.58,5.22,5.22,0,0,1,1.83,1.55,6.39,6.39,0,0,1,1,2.22,8.3,8.3,0,0,1,.23,2.61H81.63A3.26,3.26,0,0,0,82.42,63Zm3.64-6.17a2.26,2.26,0,0,0-1.76-.64,2.8,2.8,0,0,0-1.28.26,2.44,2.44,0,0,0-.82.65,2.37,2.37,0,0,0-.43.82,3.64,3.64,0,0,0-.15.77h5.24A3.72,3.72,0,0,0,86.06,56.8Z"/><path class="cls-2" d="M100,67.7a7.44,7.44,0,0,1-2-.26,5.21,5.21,0,0,1-1.84-.93,4.58,4.58,0,0,1-1.31-1.67,5.3,5.3,0,0,1-.46-2.25A5,5,0,0,1,95,60.16a4.78,4.78,0,0,1,.61-.88h-.9l.1-1.72a5.33,5.33,0,0,1,.84-2.69,5.48,5.48,0,0,1,1.79-1.7,7.19,7.19,0,0,1,2.24-.84,11.57,11.57,0,0,1,2.26-.22,14.84,14.84,0,0,1,2,.14,7.12,7.12,0,0,1,2.14.63,4.88,4.88,0,0,1,1.82,1.51,4.4,4.4,0,0,1,.79,2.67v6.1a10.32,10.32,0,0,0,.08,1.31,1.76,1.76,0,0,0,.1.46l1.54,2.47-2.93,0H103l-.07-.2-.33.11A8.93,8.93,0,0,1,100,67.7Zm1.79-5.44-.37.06A1.55,1.55,0,0,0,101.81,62.26Z"/><path class="cls-4" d="M96.39,57.66A3.73,3.73,0,0,1,97,55.78a3.86,3.86,0,0,1,1.27-1.2,5.55,5.55,0,0,1,1.74-.65,9.89,9.89,0,0,1,1.94-.19,13.15,13.15,0,0,1,1.79.12,5.49,5.49,0,0,1,1.66.49,3.26,3.26,0,0,1,1.22,1,2.82,2.82,0,0,1,.48,1.71v6.1a12,12,0,0,0,.09,1.52,2.76,2.76,0,0,0,.32,1.09h-3.27a4.55,4.55,0,0,1-.15-.56,4.79,4.79,0,0,1-.08-.58,4.18,4.18,0,0,1-1.81,1.11,7.28,7.28,0,0,1-2.13.32,5.76,5.76,0,0,1-1.57-.2,3.58,3.58,0,0,1-1.27-.64,3,3,0,0,1-.85-1.09A3.68,3.68,0,0,1,96,62.58a3.41,3.41,0,0,1,.35-1.64,2.93,2.93,0,0,1,.91-1,4.05,4.05,0,0,1,1.27-.58A13.72,13.72,0,0,1,100,59q.72-.11,1.43-.18a8.54,8.54,0,0,0,1.25-.2,2.17,2.17,0,0,0,.86-.4.87.87,0,0,0,.29-.76,1.7,1.7,0,0,0-.17-.83,1.25,1.25,0,0,0-.45-.48,1.79,1.79,0,0,0-.66-.23,5.36,5.36,0,0,0-.8-.06,2.45,2.45,0,0,0-1.5.41,1.82,1.82,0,0,0-.64,1.36ZM103.83,60a1.44,1.44,0,0,1-.51.28,5.17,5.17,0,0,1-.66.17l-.74.11-.77.11a5.69,5.69,0,0,0-.71.18,2.07,2.07,0,0,0-.61.31,1.46,1.46,0,0,0-.42.49,1.57,1.57,0,0,0-.16.75,1.51,1.51,0,0,0,.16.73,1.22,1.22,0,0,0,.43.46,1.82,1.82,0,0,0,.64.24,4.08,4.08,0,0,0,.75.07,2.84,2.84,0,0,0,1.47-.32,2.13,2.13,0,0,0,.77-.76,2.44,2.44,0,0,0,.31-.9,6.27,6.27,0,0,0,.06-.73Z"/><path class="cls-2" d="M127.25,67.4V59.14q0-.52,0-1a1,1,0,0,0,0-.25,1.42,1.42,0,0,0-.26,0,.83.83,0,0,0-.27,0,.26.26,0,0,0-.08.09,1.12,1.12,0,0,0-.12.39,5.63,5.63,0,0,0-.06.84V67.4H119.9V59.2q0-.48,0-1a1.36,1.36,0,0,0-.05-.33l-.26,0-.17,0a.44.44,0,0,0-.13.08.76.76,0,0,0-.15.24,1.77,1.77,0,0,0-.1.71V67.4h-6.46v-15h6.28a6,6,0,0,1,2-.33,6.35,6.35,0,0,1,2.72.58,4.21,4.21,0,0,1,.86.54l.37-.26a5.37,5.37,0,0,1,3-.86,7.91,7.91,0,0,1,2.17.29,5.1,5.1,0,0,1,2,1.07,4.94,4.94,0,0,1,1.32,1.93,6.9,6.9,0,0,1,.43,2.53V67.4Z"/><path class="cls-4" d="M117.21,54.06v1.59h0a4.58,4.58,0,0,1,1.53-1.41,4.15,4.15,0,0,1,2.05-.5,4.72,4.72,0,0,1,2,.43,2.85,2.85,0,0,1,1.39,1.52,5,5,0,0,1,1.42-1.36,3.77,3.77,0,0,1,2.12-.59,6.26,6.26,0,0,1,1.72.23,3.47,3.47,0,0,1,1.36.73,3.33,3.33,0,0,1,.88,1.3,5.28,5.28,0,0,1,.32,1.94v7.85h-3.22V59.14q0-.59,0-1.11a2.36,2.36,0,0,0-.25-.91,1.51,1.51,0,0,0-.6-.61,2.18,2.18,0,0,0-1.08-.23,2.07,2.07,0,0,0-1.1.26,1.89,1.89,0,0,0-.66.68,2.73,2.73,0,0,0-.32,1,7.29,7.29,0,0,0-.08,1.08v6.53h-3.22V59.2q0-.52,0-1a2.88,2.88,0,0,0-.19-.94,1.45,1.45,0,0,0-.57-.69,2.15,2.15,0,0,0-1.17-.26,2.41,2.41,0,0,0-.6.1,2,2,0,0,0-.73.39,2.24,2.24,0,0,0-.6.82,3.3,3.3,0,0,0-.25,1.39v6.8h-3.22V54.06Z"/><path class="cls-2" d="M64.83,90.95V71.88H71a6.37,6.37,0,0,1,2-.32,6.69,6.69,0,0,1,3.13.71,6.55,6.55,0,0,1,2.19,1.84,7.49,7.49,0,0,1,1.25,2.56A10.6,10.6,0,0,1,80,79.48a9.71,9.71,0,0,1-.38,2.72,7.4,7.4,0,0,1-1.24,2.46,6.39,6.39,0,0,1-2.15,1.79,6.46,6.46,0,0,1-3,.68,6.35,6.35,0,0,1-1.94-.3v4.11Zm7.52-13.72a1,1,0,0,0-.48.09,1,1,0,0,0-.34.34,1.91,1.91,0,0,0-.25.65,5.54,5.54,0,0,0-.1,1.09,4.9,4.9,0,0,0,.11,1,2,2,0,0,0,.26.66.91.91,0,0,0,.33.3,1.07,1.07,0,0,0,.5.1,1,1,0,0,0,.5-.09,1,1,0,0,0,.33-.31,1.83,1.83,0,0,0,.24-.63,5.46,5.46,0,0,0,.1-1.07,4.92,4.92,0,0,0-.11-1,2.07,2.07,0,0,0-.27-.69,1.08,1.08,0,0,0-.36-.35A.92.92,0,0,0,72.35,77.22Z"/><path class="cls-4" d="M69.51,73.5V75h0a3.54,3.54,0,0,1,1.5-1.38,4.6,4.6,0,0,1,2-.43,5.08,5.08,0,0,1,2.38.52,4.92,4.92,0,0,1,1.66,1.38,5.85,5.85,0,0,1,1,2,8.94,8.94,0,0,1,.32,2.39,8.07,8.07,0,0,1-.32,2.27,5.77,5.77,0,0,1-1,1.93A4.76,4.76,0,0,1,75.49,85a4.85,4.85,0,0,1-2.26.5,4.57,4.57,0,0,1-2-.44,3.8,3.8,0,0,1-1.51-1.3h0v5.56H66.45V73.5Zm4.18,9.3a2.58,2.58,0,0,0,.86-.83A3.42,3.42,0,0,0,75,80.78a7,7,0,0,0,.14-1.38A6.53,6.53,0,0,0,75,78a3.7,3.7,0,0,0-.49-1.21,2.72,2.72,0,0,0-.87-.86,2.44,2.44,0,0,0-1.3-.33,2.48,2.48,0,0,0-1.33.33,2.65,2.65,0,0,0-.86.85A3.53,3.53,0,0,0,69.7,78a7.13,7.13,0,0,0-.14,1.41,6.5,6.5,0,0,0,.15,1.38A3.58,3.58,0,0,0,70.18,82a2.54,2.54,0,0,0,.87.83,2.9,2.9,0,0,0,2.64,0Z"/><rect class="cls-2" x="83.32" y="67.41" width="6.46" height="19.43"/><path class="cls-4" d="M88.16,69V85.22H84.94V69Z"/><path class="cls-2" d="M98.73,87.14a7.44,7.44,0,0,1-2-.26,5.21,5.21,0,0,1-1.84-.93,4.58,4.58,0,0,1-1.31-1.67A5.3,5.3,0,0,1,93.11,82a5,5,0,0,1,.55-2.42,4.79,4.79,0,0,1,.61-.88h-.9l.1-1.72a5.33,5.33,0,0,1,.84-2.69,5.48,5.48,0,0,1,1.79-1.7,7.2,7.2,0,0,1,2.24-.84,11.54,11.54,0,0,1,2.26-.22,14.9,14.9,0,0,1,2,.14,7.11,7.11,0,0,1,2.14.63,4.88,4.88,0,0,1,1.82,1.51,4.41,4.41,0,0,1,.79,2.67v6.1a10.32,10.32,0,0,0,.08,1.31,1.76,1.76,0,0,0,.1.46l1.54,2.47-2.93,0h-4.43l-.07-.2-.33.11A8.93,8.93,0,0,1,98.73,87.14Zm1.79-5.44-.37.06A1.57,1.57,0,0,0,100.52,81.7Z"/><path class="cls-4" d="M95.1,77.1a3.73,3.73,0,0,1,.57-1.88A3.86,3.86,0,0,1,96.93,74a5.55,5.55,0,0,1,1.74-.65,9.89,9.89,0,0,1,1.94-.19,13.15,13.15,0,0,1,1.79.12,5.49,5.49,0,0,1,1.66.49,3.27,3.27,0,0,1,1.23,1,2.82,2.82,0,0,1,.48,1.71v6.1a12,12,0,0,0,.09,1.52,2.76,2.76,0,0,0,.32,1.09H102.9a4.55,4.55,0,0,1-.15-.56,4.79,4.79,0,0,1-.08-.58,4.18,4.18,0,0,1-1.81,1.11,7.28,7.28,0,0,1-2.13.32,5.76,5.76,0,0,1-1.57-.2,3.58,3.58,0,0,1-1.27-.64A3,3,0,0,1,95,83.59,3.68,3.68,0,0,1,94.73,82a3.41,3.41,0,0,1,.35-1.64,2.93,2.93,0,0,1,.91-1,4.05,4.05,0,0,1,1.27-.58,13.72,13.72,0,0,1,1.44-.31q.72-.11,1.43-.18a8.54,8.54,0,0,0,1.25-.2,2.17,2.17,0,0,0,.86-.4.87.87,0,0,0,.29-.76,1.7,1.7,0,0,0-.17-.83,1.25,1.25,0,0,0-.45-.48,1.79,1.79,0,0,0-.66-.23,5.36,5.36,0,0,0-.8-.06,2.45,2.45,0,0,0-1.5.41,1.82,1.82,0,0,0-.64,1.36Zm7.44,2.38a1.44,1.44,0,0,1-.51.28,5.17,5.17,0,0,1-.66.17l-.74.11-.77.11a5.69,5.69,0,0,0-.71.18,2.07,2.07,0,0,0-.61.31,1.46,1.46,0,0,0-.42.49,1.57,1.57,0,0,0-.16.75,1.51,1.51,0,0,0,.16.73,1.22,1.22,0,0,0,.43.46,1.82,1.82,0,0,0,.64.24,4.08,4.08,0,0,0,.75.07,2.84,2.84,0,0,0,1.47-.32,2.13,2.13,0,0,0,.77-.76,2.44,2.44,0,0,0,.31-.9,6.27,6.27,0,0,0,.06-.73Z"/><path class="cls-2" d="M114.53,90.95c-.37,0-.73,0-1.1,0l-1-.08-1.47-.13V84.77l2.7.27.39,0-4.92-13.18H116l1.48,4.47L119,71.88h6.85l-5.71,15.36A5.55,5.55,0,0,1,118,90.07,6.24,6.24,0,0,1,114.53,90.95Z"/><path class="cls-4" d="M117.12,88.71a4.67,4.67,0,0,1-2.59.61q-.5,0-1,0l-1-.08V86.56l.93.09a6.72,6.72,0,0,0,1,0,1.25,1.25,0,0,0,.94-.5,1.61,1.61,0,0,0,.31-1,1.93,1.93,0,0,0-.14-.73l-4.1-11h3.42l2.65,8h0l2.56-8h3.33l-4.9,13.18A4,4,0,0,1,117.12,88.71Z"/><path class="cls-2" d="M134.51,87.14a8.34,8.34,0,0,1-3.09-.56A6.82,6.82,0,0,1,129,84.93a7.29,7.29,0,0,1-1.53-2.5,8.78,8.78,0,0,1-.52-3.06,8.49,8.49,0,0,1,.54-3,7.3,7.3,0,0,1,4-4.18,7.71,7.71,0,0,1,3.08-.61,7.2,7.2,0,0,1,3.35.76,6.85,6.85,0,0,1,2.39,2,8,8,0,0,1,1.29,2.78,9.87,9.87,0,0,1,.29,2.84h.39l-.49,1.51,0,.28h-.07l-.11.33A7,7,0,0,1,138.79,86,7.76,7.76,0,0,1,134.51,87.14Z"/><path class="cls-4" d="M132.54,82.41a3.3,3.3,0,0,0,3.77.22,2,2,0,0,0,.86-1H140a5.38,5.38,0,0,1-2.09,3,6.14,6.14,0,0,1-3.4.91,6.71,6.71,0,0,1-2.49-.44,5.19,5.19,0,0,1-1.88-1.26,5.65,5.65,0,0,1-1.19-1.95,7.13,7.13,0,0,1-.42-2.49,6.84,6.84,0,0,1,.43-2.45,5.67,5.67,0,0,1,3.12-3.27,6.08,6.08,0,0,1,2.44-.48,5.58,5.58,0,0,1,2.61.58,5.22,5.22,0,0,1,1.83,1.55,6.39,6.39,0,0,1,1,2.22,8.3,8.3,0,0,1,.23,2.61h-8.46A3.26,3.26,0,0,0,132.54,82.41Zm3.64-6.17a2.26,2.26,0,0,0-1.76-.64,2.8,2.8,0,0,0-1.28.26,2.44,2.44,0,0,0-.82.65,2.37,2.37,0,0,0-.43.82,3.69,3.69,0,0,0-.15.77H137A3.72,3.72,0,0,0,136.18,76.24Z"/><path class="cls-2" d="M145,86.84v-15h6.3V72l.49-.18a5.49,5.49,0,0,1,1.67-.26,4.13,4.13,0,0,1,1.16.18l1.16.34v6.18l-1.94-.39-.4-.06-.44,0a1.92,1.92,0,0,0-.79.13,1,1,0,0,0-.38.3,1.63,1.63,0,0,0-.26.6,4.89,4.89,0,0,0-.12,1.11v6.9Z"/><path class="cls-4" d="M149.71,73.5v2.18h0a4,4,0,0,1,.61-1,4,4,0,0,1,.89-.79,4.32,4.32,0,0,1,1.07-.51,3.85,3.85,0,0,1,1.18-.18,2.5,2.5,0,0,1,.7.11v3l-.54-.08a5.69,5.69,0,0,0-.61,0,3.43,3.43,0,0,0-1.5.3,2.59,2.59,0,0,0-1,.8,3.24,3.24,0,0,0-.53,1.19,6.47,6.47,0,0,0-.16,1.47v5.28h-3.22V73.5Z"/><rect class="cls-4" x="94.49" y="35.48" width="1.57" height="0.94"/></svg>